<svg xmlns="http://www.w3.org/2000/svg" xmlns:xlink="http://www.w3.org/1999/xlink" width="500" zoomAndPan="magnify" viewBox="0 0 375 374.999991" height="500" preserveAspectRatio="xMidYMid meet" version="1.0"><defs><clipPath id="8b5fb3155b"><path d="M 161 352 L 214 352 L 214 368.304688 L 161 368.304688 Z M 161 352 " clip-rule="nonzero"/></clipPath><clipPath id="6056b1f8c9"><path d="M 76 87.09375 L 187 87.09375 L 187 313 L 76 313 Z M 76 87.09375 " clip-rule="nonzero"/></clipPath><clipPath id="1aae7c4aa7"><path d="M 191.59375 79 L 313 79 L 313 313.601562 L 191.59375 313.601562 Z M 191.59375 79 " clip-rule="nonzero"/></clipPath><clipPath id="d741eb6359"><path d="M 38 83 L 99 83 L 99 109 L 38 109 Z M 38 83 " clip-rule="nonzero"/></clipPath><clipPath id="202d400268"><path d="M 23.144531 35.605469 L 227.085938 -24.449219 L 252.824219 62.957031 L 48.882812 123.011719 Z M 23.144531 35.605469 " clip-rule="nonzero"/></clipPath><clipPath id="190227fdd7"><path d="M 23.144531 35.605469 L 227.085938 -24.449219 L 252.824219 62.957031 L 48.882812 123.011719 Z M 23.144531 35.605469 " clip-rule="nonzero"/></clipPath><clipPath id="96f7640d77"><path d="M 77 48 L 114 48 L 114 80 L 77 80 Z M 77 48 " clip-rule="nonzero"/></clipPath><clipPath id="1f867e0313"><path d="M 23.144531 35.605469 L 227.085938 -24.449219 L 252.824219 62.957031 L 48.882812 123.011719 Z M 23.144531 35.605469 " clip-rule="nonzero"/></clipPath><clipPath id="9c830586b9"><path d="M 23.144531 35.605469 L 227.085938 -24.449219 L 252.824219 62.957031 L 48.882812 123.011719 Z M 23.144531 35.605469 " clip-rule="nonzero"/></clipPath><clipPath id="423a5c76c5"><path d="M 116 7 L 139 7 L 139 70 L 116 70 Z M 116 7 " clip-rule="nonzero"/></clipPath><clipPath id="2139196b43"><path d="M 23.144531 35.605469 L 227.085938 -24.449219 L 252.824219 62.957031 L 48.882812 123.011719 Z M 23.144531 35.605469 " clip-rule="nonzero"/></clipPath><clipPath id="783e64a1f7"><path d="M 23.144531 35.605469 L 227.085938 -24.449219 L 252.824219 62.957031 L 48.882812 123.011719 Z M 23.144531 35.605469 " clip-rule="nonzero"/></clipPath><clipPath id="4331807d68"><path d="M 119 13 L 132 13 L 132 42 L 119 42 Z M 119 13 " clip-rule="nonzero"/></clipPath><clipPath id="f2bcd41395"><path d="M 23.144531 35.605469 L 227.085938 -24.449219 L 252.824219 62.957031 L 48.882812 123.011719 Z M 23.144531 35.605469 " clip-rule="nonzero"/></clipPath><clipPath id="b0edc52398"><path d="M 23.144531 35.605469 L 227.085938 -24.449219 L 252.824219 62.957031 L 48.882812 123.011719 Z M 23.144531 35.605469 " clip-rule="nonzero"/></clipPath><clipPath id="d964757005"><path d="M 163 22 L 177 22 L 177 70 L 163 70 Z M 163 22 " clip-rule="nonzero"/></clipPath><clipPath id="341f1ed317"><path d="M 23.144531 35.605469 L 227.085938 -24.449219 L 252.824219 62.957031 L 48.882812 123.011719 Z M 23.144531 35.605469 " clip-rule="nonzero"/></clipPath><clipPath id="90a32343f2"><path d="M 23.144531 35.605469 L 227.085938 -24.449219 L 252.824219 62.957031 L 48.882812 123.011719 Z M 23.144531 35.605469 " clip-rule="nonzero"/></clipPath><clipPath id="1e56d654b7"><path d="M 188 24 L 242 24 L 242 78 L 188 78 Z M 188 24 " clip-rule="nonzero"/></clipPath><clipPath id="913c7bdaa2"><path d="M 23.144531 35.605469 L 227.085938 -24.449219 L 252.824219 62.957031 L 48.882812 123.011719 Z M 23.144531 35.605469 " clip-rule="nonzero"/></clipPath><clipPath id="fda4a583e7"><path d="M 23.144531 35.605469 L 227.085938 -24.449219 L 252.824219 62.957031 L 48.882812 123.011719 Z M 23.144531 35.605469 " clip-rule="nonzero"/></clipPath></defs><rect x="-37.5" width="450" fill="#ffffff" y="-37.499999" height="449.999989" fill-opacity="1"/><rect x="-37.5" width="450" fill="#43565f" y="-37.499999" height="449.999989" fill-opacity="1"/><g clip-path="url(#8b5fb3155b)"><path fill="#f97930" d="M 213.8125 352.917969 C 208.023438 362.390625 198.550781 368.707031 187.496094 368.707031 C 176.96875 368.707031 167.492188 362.390625 161.175781 352.917969 Z M 213.8125 352.917969 " fill-opacity="1" fill-rule="evenodd"/></g><path fill="#f97930" d="M 148.019531 328.703125 L 227.5 328.703125 C 227.777344 328.703125 228.050781 328.734375 228.320312 328.800781 C 228.59375 328.863281 228.855469 328.960938 229.113281 329.085938 C 229.367188 329.210938 229.609375 329.363281 229.839844 329.546875 C 230.070312 329.730469 230.28125 329.9375 230.476562 330.167969 C 230.671875 330.402344 230.847656 330.652344 231 330.925781 C 231.15625 331.199219 231.285156 331.488281 231.390625 331.789062 C 231.496094 332.09375 231.574219 332.40625 231.628906 332.730469 C 231.683594 333.050781 231.710938 333.375 231.710938 333.703125 C 231.710938 334.03125 231.683594 334.359375 231.628906 334.679688 C 231.574219 335.003906 231.496094 335.316406 231.390625 335.617188 C 231.285156 335.921875 231.15625 336.210938 231 336.484375 C 230.847656 336.753906 230.671875 337.007812 230.476562 337.242188 C 230.28125 337.472656 230.070312 337.679688 229.839844 337.863281 C 229.609375 338.042969 229.367188 338.199219 229.113281 338.324219 C 228.855469 338.449219 228.59375 338.546875 228.320312 338.609375 C 228.050781 338.671875 227.777344 338.707031 227.5 338.707031 L 148.019531 338.707031 C 147.742188 338.707031 147.46875 338.671875 147.195312 338.609375 C 146.925781 338.546875 146.660156 338.449219 146.40625 338.324219 C 146.152344 338.199219 145.90625 338.042969 145.679688 337.863281 C 145.449219 337.679688 145.234375 337.472656 145.039062 337.242188 C 144.84375 337.007812 144.671875 336.753906 144.515625 336.484375 C 144.363281 336.210938 144.234375 335.921875 144.128906 335.617188 C 144.019531 335.316406 143.941406 335.003906 143.886719 334.679688 C 143.832031 334.359375 143.808594 334.03125 143.808594 333.703125 C 143.808594 333.375 143.832031 333.050781 143.886719 332.730469 C 143.941406 332.40625 144.019531 332.09375 144.128906 331.789062 C 144.234375 331.488281 144.363281 331.199219 144.515625 330.925781 C 144.671875 330.652344 144.84375 330.402344 145.039062 330.167969 C 145.234375 329.9375 145.449219 329.730469 145.679688 329.546875 C 145.90625 329.363281 146.152344 329.210938 146.40625 329.085938 C 146.660156 328.960938 146.925781 328.863281 147.195312 328.800781 C 147.46875 328.734375 147.742188 328.703125 148.019531 328.703125 Z M 148.019531 328.703125 " fill-opacity="1" fill-rule="evenodd"/><path fill="#f97930" d="M 153.808594 343.441406 L 221.183594 343.441406 C 221.390625 343.441406 221.597656 343.472656 221.800781 343.539062 C 222.003906 343.601562 222.199219 343.699219 222.390625 343.824219 C 222.582031 343.949219 222.765625 344.101562 222.9375 344.285156 C 223.109375 344.46875 223.269531 344.675781 223.417969 344.90625 C 223.5625 345.140625 223.695312 345.390625 223.808594 345.664062 C 223.925781 345.9375 224.023438 346.226562 224.101562 346.53125 C 224.179688 346.832031 224.242188 347.144531 224.28125 347.46875 C 224.320312 347.789062 224.339844 348.113281 224.339844 348.441406 C 224.339844 348.769531 224.320312 349.097656 224.28125 349.417969 C 224.242188 349.742188 224.179688 350.054688 224.101562 350.355469 C 224.023438 350.660156 223.925781 350.949219 223.808594 351.222656 C 223.695312 351.496094 223.5625 351.746094 223.417969 351.980469 C 223.269531 352.210938 223.109375 352.417969 222.9375 352.601562 C 222.765625 352.785156 222.582031 352.9375 222.390625 353.0625 C 222.199219 353.1875 222.003906 353.285156 221.800781 353.347656 C 221.597656 353.410156 221.390625 353.445312 221.183594 353.445312 L 153.808594 353.445312 C 153.601562 353.445312 153.394531 353.410156 153.191406 353.347656 C 152.988281 353.285156 152.789062 353.1875 152.597656 353.0625 C 152.40625 352.9375 152.226562 352.785156 152.054688 352.601562 C 151.878906 352.417969 151.722656 352.210938 151.574219 351.980469 C 151.429688 351.746094 151.296875 351.496094 151.183594 351.222656 C 151.066406 350.949219 150.96875 350.660156 150.890625 350.355469 C 150.8125 350.054688 150.75 349.742188 150.710938 349.417969 C 150.667969 349.097656 150.648438 348.769531 150.648438 348.441406 C 150.648438 348.113281 150.667969 347.789062 150.710938 347.46875 C 150.75 347.144531 150.8125 346.832031 150.890625 346.53125 C 150.96875 346.226562 151.066406 345.9375 151.183594 345.664062 C 151.296875 345.390625 151.429688 345.140625 151.574219 344.90625 C 151.722656 344.675781 151.878906 344.46875 152.054688 344.285156 C 152.226562 344.101562 152.40625 343.949219 152.597656 343.824219 C 152.789062 343.699219 152.988281 343.601562 153.191406 343.539062 C 153.394531 343.472656 153.601562 343.441406 153.808594 343.441406 Z M 153.808594 343.441406 " fill-opacity="1" fill-rule="evenodd"/><path fill="#fcffe9" d="M 130.800781 273.230469 C 130.121094 275.09375 131.050781 277.207031 132.890625 277.886719 C 134.75 278.566406 136.816406 277.585938 137.519531 275.722656 C 141.171875 266.03125 152.042969 261.074219 161.785156 264.699219 C 163.671875 265.378906 165.710938 264.394531 166.417969 262.53125 C 167.121094 260.671875 166.214844 258.605469 164.328125 257.902344 C 150.859375 252.917969 135.835938 259.789062 130.800781 273.230469 Z M 130.800781 273.230469 " fill-opacity="1" fill-rule="nonzero"/><g clip-path="url(#6056b1f8c9)"><path fill="#fcffe9" d="M 177.164062 90.464844 C 172.230469 87.242188 165.988281 87.042969 158.738281 89.785156 C 158.160156 89.960938 146.105469 94.265625 138.277344 101.667969 C 137.773438 101.640625 137.320312 101.566406 136.816406 101.566406 C 122.441406 101.566406 110.789062 113.246094 110.789062 127.644531 C 110.789062 131.066406 111.46875 134.386719 112.777344 137.507812 C 100.066406 141.007812 90.703125 152.484375 90.703125 166.28125 C 90.703125 168.898438 91.179688 171.464844 91.808594 173.980469 C 82.722656 179.316406 76.960938 189.109375 76.960938 199.78125 C 76.960938 207.484375 79.929688 214.429688 84.761719 219.742188 C 83 223.617188 81.992188 227.847656 81.992188 232.175781 C 81.992188 244.234375 89.320312 254.980469 100.140625 259.664062 C 99.058594 262.507812 98.480469 265.605469 98.480469 268.699219 C 98.480469 283.097656 110.160156 294.75 124.558594 294.75 C 125.210938 294.75 125.917969 294.601562 126.621094 294.550781 C 130.546875 305.324219 142.203125 312.898438 155.769531 312.898438 C 172.632812 312.898438 186.378906 301.195312 186.378906 286.847656 L 186.378906 261.375 C 186.378906 261.375 186.378906 261.375 186.378906 261.324219 L 186.378906 164.945312 C 186.378906 164.945312 186.378906 164.945312 186.378906 164.921875 L 186.378906 164.894531 L 186.351562 108.5625 C 186.351562 108.058594 185.570312 95.953125 177.164062 90.464844 Z M 179.179688 147.050781 C 174.445312 142.039062 167.75 138.867188 160.300781 138.867188 C 158.3125 138.867188 156.699219 140.480469 156.699219 142.46875 C 156.699219 144.429688 158.3125 146.066406 160.300781 146.066406 C 170.722656 146.066406 179.179688 154.523438 179.179688 164.945312 L 179.179688 243.503906 C 174.445312 238.496094 167.75 235.296875 160.300781 235.296875 C 158.3125 235.273438 156.699219 236.882812 156.699219 238.847656 C 156.699219 240.859375 158.3125 242.445312 160.300781 242.445312 C 170.722656 242.445312 179.179688 250.953125 179.179688 261.324219 L 179.179688 286.847656 C 179.179688 297.21875 168.707031 305.726562 155.769531 305.726562 C 144.316406 305.726562 134.574219 299.082031 132.6875 289.996094 C 132.261719 288.054688 130.320312 286.847656 128.382812 287.175781 C 128.382812 287.175781 128.359375 287.175781 128.332031 287.175781 C 127.101562 287.476562 125.839844 287.578125 124.558594 287.578125 C 114.136719 287.578125 105.65625 279.121094 105.65625 268.699219 C 105.65625 265.402344 106.535156 262.207031 108.144531 259.363281 C 108.246094 259.210938 108.273438 259.007812 108.324219 258.808594 C 108.347656 258.707031 108.449219 258.65625 108.523438 258.554688 C 108.523438 258.457031 108.523438 258.304688 108.523438 258.152344 C 108.550781 258.003906 108.550781 257.851562 108.550781 257.648438 C 108.550781 257.347656 108.550781 257.070312 108.523438 256.820312 C 108.449219 256.644531 108.398438 256.492188 108.324219 256.367188 C 108.222656 256.0625 108.121094 255.863281 107.945312 255.636719 C 107.871094 255.460938 107.71875 255.335938 107.59375 255.183594 C 107.390625 254.980469 107.191406 254.832031 107.011719 254.628906 C 106.914062 254.578125 106.886719 254.527344 106.785156 254.476562 C 106.660156 254.378906 106.484375 254.378906 106.308594 254.300781 C 106.207031 254.25 106.109375 254.203125 105.980469 254.152344 C 96.089844 251.433594 89.21875 242.394531 89.21875 232.175781 C 89.21875 229.660156 89.773438 227.167969 90.578125 224.851562 C 95.285156 227.898438 100.871094 229.761719 106.914062 229.761719 C 108.875 229.761719 110.511719 228.148438 110.511719 226.160156 C 110.511719 224.148438 108.875 222.511719 106.914062 222.511719 C 94.328125 222.511719 84.160156 212.316406 84.160156 199.757812 C 84.160156 190.921875 89.320312 182.867188 97.324219 179.117188 L 97.347656 179.117188 C 97.398438 179.089844 97.449219 179.042969 97.5 179.015625 C 100.46875 177.683594 103.640625 177.003906 106.914062 177.003906 C 108.875 177.003906 110.511719 175.390625 110.511719 173.402344 C 110.511719 171.414062 108.875 169.855469 106.914062 169.855469 C 103.992188 169.855469 101.222656 170.382812 98.480469 171.1875 C 98.128906 169.578125 97.875 167.941406 97.875 166.28125 C 97.875 153.71875 108.121094 143.527344 120.65625 143.527344 C 129.339844 143.527344 137.117188 148.332031 141.019531 156.109375 C 141.925781 157.898438 144.066406 158.578125 145.851562 157.695312 C 147.613281 156.816406 148.34375 154.675781 147.4375 152.890625 C 142.328125 142.667969 132.082031 136.328125 120.65625 136.328125 C 120.53125 136.328125 120.429688 136.351562 120.277344 136.351562 C 118.84375 133.660156 117.964844 130.714844 117.964844 127.617188 C 117.964844 117.195312 126.421875 108.738281 136.839844 108.738281 C 143.6875 108.738281 150.003906 112.464844 153.351562 118.457031 C 154.863281 121.25 155.695312 124.421875 155.695312 127.617188 C 155.695312 129.582031 157.328125 131.21875 159.292969 131.21875 C 161.28125 131.21875 162.917969 129.582031 162.917969 127.617188 C 162.917969 123.1875 161.785156 118.808594 159.644531 114.980469 C 156.75 109.847656 152.347656 105.96875 147.136719 103.707031 C 153.527344 99.273438 161.003906 96.605469 161.15625 96.53125 C 166.265625 94.617188 170.34375 94.59375 173.238281 96.480469 C 178.523438 99.929688 179.179688 108.765625 179.179688 108.765625 Z M 179.179688 147.050781 " fill-opacity="1" fill-rule="nonzero"/></g><path fill="#fcffe9" d="M 140.339844 182.136719 C 139.988281 180.222656 138.097656 178.941406 136.136719 179.316406 C 134.171875 179.695312 132.941406 181.582031 133.316406 183.523438 C 134.675781 190.746094 138.503906 197.0625 143.9375 201.871094 C 143.8125 202.324219 143.738281 202.777344 143.761719 203.253906 C 144.367188 213.652344 136.4375 222.636719 126.066406 223.265625 C 124.054688 223.367188 122.570312 225.078125 122.667969 227.042969 C 122.796875 228.953125 124.382812 230.441406 126.269531 230.441406 C 126.320312 230.441406 126.394531 230.441406 126.519531 230.441406 C 139.558594 229.660156 149.703125 219.289062 150.785156 206.578125 C 155.367188 208.894531 160.351562 210.101562 165.433594 210.101562 C 167.523438 210.101562 169.613281 209.925781 171.652344 209.523438 C 173.566406 209.171875 174.847656 207.28125 174.496094 205.320312 C 174.144531 203.40625 172.179688 202.097656 170.292969 202.476562 C 163.546875 203.785156 156.75 202.375 151.136719 198.523438 C 145.449219 194.671875 141.625 188.859375 140.339844 182.136719 Z M 140.339844 182.136719 " fill-opacity="1" fill-rule="nonzero"/><g clip-path="url(#1aae7c4aa7)"><path fill="#f97930" d="M 281.371094 178.234375 C 279.621094 175.519531 275.980469 171.859375 273.335938 170.152344 C 270.925781 168.28125 266.097656 166.347656 263.183594 166.132812 L 257.289062 165.738281 C 237.824219 166.003906 215.796875 176.457031 205.753906 193.574219 C 204.574219 195.839844 203.414062 197.898438 202.683594 200.359375 C 201.152344 205.082031 200.671875 211.289062 203.796875 215.503906 C 207.3125 220.261719 214.09375 221.253906 219.621094 220.929688 C 220.601562 220.816406 222.472656 220.722656 223.507812 220.511719 C 227.265625 219.789062 230.964844 219.039062 234.507812 217.507812 C 251.546875 210.863281 270.605469 193.300781 281.871094 178.945312 Z M 216.199219 288.113281 C 218.011719 288.070312 219.195312 287.832031 220.832031 287.148438 C 224.503906 285.453125 226.761719 282.398438 227.277344 278.785156 C 227.460938 277.839844 227.28125 276.027344 226.964844 275.128906 C 226.261719 272.476562 224.207031 270.121094 221.917969 268.707031 C 220.816406 268.089844 219.636719 267.570312 218.433594 267.390625 C 216.527344 267.183594 215.238281 267.230469 213.296875 267.925781 C 209.992188 269.125 207.21875 271.875 206.167969 275.242188 C 205.03125 278.800781 205.902344 282.882812 207.988281 285.929688 C 213.109375 293.289062 223.101562 292.941406 231.832031 292.148438 C 236.175781 291.785156 240.671875 291.171875 245.042969 291.195312 C 249.21875 289.195312 253.453125 286.542969 257.96875 283.386719 C 271.199219 273.613281 281.667969 259.871094 287.210938 244.359375 C 293.757812 226.152344 294.445312 207.113281 287.339844 189.328125 C 281.003906 196.761719 273.992188 203.410156 266.476562 209.632812 C 258.054688 216.621094 248.328125 223.089844 238.09375 226.890625 C 229.996094 230.175781 218.710938 231.71875 210.4375 229.871094 C 192.011719 225.757812 188.613281 208.683594 195.871094 193.113281 L 198.085938 189.019531 C 210.238281 169.03125 236.566406 156.875 259.769531 158.277344 L 264.386719 158.78125 C 268.34375 159.230469 274.34375 161.828125 277.460938 164.308594 C 280.769531 166.585938 283.769531 169.867188 286.171875 173.109375 C 291.441406 165.414062 295.738281 157.144531 298.296875 148.421875 C 298.632812 147.160156 299.089844 145.921875 299.332031 144.644531 C 301.171875 136.011719 302.148438 126.855469 299.71875 118.230469 C 297.214844 109.054688 290.042969 101.492188 281.273438 96.789062 C 262.132812 86.683594 240.351562 91.773438 221.703125 100.777344 C 191.839844 115.34375 168.222656 138.292969 151.894531 167.035156 C 149.496094 171.226562 147.214844 175.527344 144.988281 179.890625 C 141.972656 176.914062 138.679688 174.691406 134.867188 172.867188 C 136.902344 168.882812 139.019531 164.914062 141.253906 160.972656 C 158.667969 130.027344 184.410156 105.433594 216.488281 89.917969 C 227.289062 84.75 238.746094 80.894531 250.703125 79.695312 C 253.503906 79.367188 257.128906 79.207031 259.941406 79.363281 L 269.160156 80.25 C 281.328125 82.441406 293.625 88.621094 301.683594 98.132812 L 303.230469 99.988281 C 310.855469 109.847656 313.375 121.351562 312.359375 133.804688 C 312.183594 138.375 311.25 142.867188 310.257812 147.3125 C 309.949219 148.800781 309.425781 150.21875 309.019531 151.675781 C 305.554688 163.011719 299.308594 174.207031 292.042969 183.550781 C 300.820312 203.59375 299.875 225.625 291.828125 246.101562 C 284.210938 265.574219 269.394531 281.9375 251.015625 291.414062 C 253.921875 291.597656 256.8125 291.902344 259.726562 292.378906 C 274.832031 294.789062 289.261719 300.679688 301.636719 309.667969 C 301.449219 310.972656 301.375 312.296875 301.410156 313.632812 C 298.628906 311.949219 295.734375 310.351562 292.808594 308.933594 C 289.710938 307.445312 286.710938 306.140625 283.515625 304.890625 L 282.640625 304.566406 C 275.003906 301.710938 266.914062 299.722656 258.828125 298.710938 C 253.246094 297.996094 247.128906 297.699219 241.5 298.105469 C 230.789062 298.886719 217.699219 301.570312 208.199219 295.0625 C 207.039062 294.214844 205.816406 293.269531 204.863281 292.179688 L 204.132812 291.347656 L 203.855469 291.003906 C 201.792969 288.277344 200.539062 285.652344 199.976562 282.152344 C 199.496094 279.210938 199.75 276.160156 200.796875 273.371094 C 202.671875 268.484375 206.695312 264.753906 211.835938 263.296875 C 214.757812 262.484375 217.648438 262.519531 220.488281 263.507812 C 225.160156 265.136719 229.09375 269.613281 229.851562 274.480469 C 230.128906 275.75 230.097656 278.042969 229.6875 279.28125 C 228.875 282.261719 227.203125 284.671875 224.515625 286.394531 C 222.933594 287.421875 221.453125 287.925781 219.644531 288.207031 C 218.523438 288.414062 217.316406 288.28125 216.203125 288.113281 Z M 216.199219 288.113281 " fill-opacity="1" fill-rule="evenodd"/></g><g clip-path="url(#d741eb6359)"><g clip-path="url(#202d400268)"><g clip-path="url(#190227fdd7)"><path fill="#fcffe9" d="M 41.308594 83.707031 L 41.222656 83.734375 C 38.914062 84.441406 38.234375 85.972656 39.179688 88.332031 C 40.03125 89.816406 42.550781 91.613281 46.746094 93.722656 C 51.183594 95.761719 60.46875 98.933594 74.605469 103.238281 C 82.300781 105.519531 87.898438 107.078125 91.398438 107.910156 C 94.578125 108.644531 96.28125 108.859375 96.503906 108.546875 C 97.117188 108.480469 97.671875 107.828125 98.171875 106.582031 C 98.347656 105.800781 98.140625 105.105469 97.5625 104.496094 C 96.855469 103.820312 95.730469 103.023438 94.183594 102.101562 C 89.578125 99.59375 86.308594 97.941406 84.375 97.148438 C 61.730469 86.886719 47.375 82.40625 41.308594 83.707031 " fill-opacity="1" fill-rule="nonzero"/></g></g></g><g clip-path="url(#96f7640d77)"><g clip-path="url(#1f867e0313)"><g clip-path="url(#9c830586b9)"><path fill="#fcffe9" d="M 79.75 48.128906 L 79.707031 48.140625 C 78.785156 48.53125 78.183594 49.109375 77.902344 49.875 C 77.710938 50.382812 77.652344 50.964844 77.734375 51.625 C 77.847656 52.277344 77.988281 52.773438 78.148438 53.105469 C 79.292969 55.640625 81.9375 58.980469 86.09375 63.125 C 89.421875 66.617188 94.289062 70.347656 100.691406 74.320312 C 102.691406 75.648438 105.425781 77.144531 108.898438 78.8125 C 110.214844 79.503906 111.261719 79.742188 112.039062 79.53125 C 112.765625 79.277344 113.226562 78.695312 113.421875 77.777344 C 113.480469 77.378906 113.484375 77.09375 113.433594 76.929688 L 113.128906 75.769531 C 113.035156 75.511719 112.945312 75.332031 112.871094 75.234375 C 108.148438 68.964844 103.769531 63.914062 99.730469 60.089844 C 96.167969 56.753906 91.898438 53.53125 86.921875 50.425781 C 83.800781 48.65625 81.410156 47.890625 79.75 48.128906 " fill-opacity="1" fill-rule="nonzero"/></g></g></g><g clip-path="url(#423a5c76c5)"><g clip-path="url(#2139196b43)"><g clip-path="url(#783e64a1f7)"><path fill="#fcffe9" d="M 121.679688 15.441406 L 121.785156 15.699219 C 122.058594 16.398438 122.34375 17.175781 122.644531 18.035156 L 122.835938 18.59375 L 123.039062 19.238281 L 123.265625 20.011719 L 123.519531 20.910156 L 123.796875 21.929688 L 124.097656 23.078125 L 124.421875 24.355469 L 124.769531 25.753906 L 125.144531 27.277344 L 125.527344 28.90625 C 125.28125 28.140625 125.023438 27.335938 124.757812 26.496094 C 124.566406 25.886719 124.222656 24.785156 123.730469 23.183594 C 122.9375 20.316406 122.296875 17.964844 121.8125 16.121094 L 121.636719 15.453125 L 121.679688 15.441406 M 135.71875 53.90625 L 135.6875 54.066406 L 135.644531 54.21875 L 135.589844 54.363281 L 135.523438 54.5 L 135.441406 54.628906 L 135.347656 54.75 L 135.242188 54.867188 L 135.121094 54.972656 L 134.988281 55.074219 C 135.160156 54.921875 135.304688 54.746094 135.421875 54.550781 C 135.539062 54.355469 135.621094 54.144531 135.675781 53.917969 L 135.71875 53.90625 M 119.246094 7.296875 L 119.101562 7.34375 C 118.039062 7.722656 117.332031 8.460938 116.980469 9.554688 L 116.714844 10.5625 C 116.574219 11.296875 116.507812 12.167969 116.511719 13.171875 C 116.523438 15.179688 116.820312 17.722656 117.410156 20.800781 C 118.003906 23.753906 118.636719 26.347656 119.3125 28.585938 C 120.960938 34.113281 122.714844 39.230469 124.566406 43.933594 C 124.898438 44.796875 126.042969 47.726562 128.011719 52.722656 L 134.683594 68.414062 C 135.234375 69.503906 136.128906 69.910156 137.367188 69.632812 C 138.042969 69.410156 138.511719 68.941406 138.773438 68.226562 C 138.871094 67.800781 138.90625 67.539062 138.875 67.445312 C 138.792969 66.910156 138.75 66.734375 138.738281 66.925781 C 138.890625 66.523438 138.902344 65.957031 138.769531 65.226562 L 135.726562 53.210938 L 129.390625 26.261719 C 128.59375 22.988281 127.941406 20.46875 127.429688 18.703125 C 126.171875 14.550781 124.863281 11.464844 123.511719 9.457031 C 122.132812 7.613281 120.710938 6.894531 119.246094 7.296875 " fill-opacity="1" fill-rule="nonzero"/></g></g></g><g clip-path="url(#4331807d68)"><g clip-path="url(#f2bcd41395)"><g clip-path="url(#b0edc52398)"><path fill="#fcffe9" d="M 120.570312 13.847656 C 119.453125 14.175781 118.78125 15.332031 119.070312 16.472656 C 119.15625 16.816406 119.269531 17.21875 119.417969 17.679688 L 119.429688 17.71875 L 120.351562 20.472656 C 120.613281 21.292969 121.335938 23.511719 122.523438 27.128906 L 122.527344 27.136719 C 122.746094 27.796875 123.34375 29.695312 124.324219 32.835938 L 124.328125 32.839844 C 124.484375 33.347656 124.703125 34.03125 124.984375 34.894531 C 125.179688 35.519531 125.777344 37.296875 126.78125 40.230469 C 127.160156 41.339844 128.347656 41.949219 129.460938 41.617188 C 129.492188 41.609375 129.523438 41.601562 129.550781 41.589844 C 130.691406 41.199219 131.300781 39.960938 130.910156 38.816406 C 129.910156 35.890625 129.324219 34.144531 129.144531 33.574219 L 129.136719 33.550781 C 128.867188 32.710938 128.652344 32.039062 128.492188 31.53125 L 128.492188 31.535156 C 127.507812 28.375 126.898438 26.453125 126.671875 25.765625 L 126.671875 25.769531 C 125.488281 22.164062 124.765625 19.945312 124.503906 19.117188 L 124.492188 19.085938 L 123.582031 16.367188 C 123.460938 15.988281 123.371094 15.671875 123.304688 15.410156 C 123.011719 14.242188 121.828125 13.53125 120.65625 13.824219 C 120.628906 13.832031 120.597656 13.839844 120.570312 13.847656 Z M 120.570312 13.847656 " fill-opacity="1" fill-rule="nonzero"/></g></g></g><g clip-path="url(#d964757005)"><g clip-path="url(#341f1ed317)"><g clip-path="url(#90a32343f2)"><path fill="#fcffe9" d="M 172.3125 22.4375 L 172.152344 22.492188 C 171.351562 22.820312 170.691406 23.40625 170.171875 24.253906 C 169.425781 25.40625 168.644531 27.21875 167.828125 29.695312 C 166.714844 33.550781 165.96875 36.523438 165.589844 38.613281 C 165.066406 41.15625 164.621094 43.722656 164.257812 46.316406 L 163.769531 50.21875 C 163.484375 52.835938 163.28125 55.472656 163.152344 58.136719 L 163.023438 62.144531 L 163.011719 66.816406 C 163.042969 67.554688 163.328125 68.152344 163.855469 68.609375 C 164.636719 69.125 165.339844 69.289062 165.96875 69.105469 C 166.625 68.890625 167.140625 68.339844 167.511719 67.457031 L 169.21875 63.070312 C 169.878906 61.214844 170.5 59.296875 171.089844 57.320312 C 172.632812 52.457031 174.230469 45.285156 175.886719 35.800781 C 176.320312 32.773438 176.523438 30.277344 176.496094 28.3125 C 176.480469 27.328125 176.410156 26.476562 176.28125 25.757812 L 176.039062 24.777344 C 175.296875 22.871094 174.054688 22.089844 172.3125 22.4375 " fill-opacity="1" fill-rule="nonzero"/></g></g></g><g clip-path="url(#1e56d654b7)"><g clip-path="url(#913c7bdaa2)"><g clip-path="url(#fda4a583e7)"><path fill="#fcffe9" d="M 237.710938 24.789062 L 236.984375 25.070312 C 228.195312 30.277344 216.421875 41.382812 201.660156 58.382812 L 197.710938 63.15625 L 189.382812 73.839844 C 188.792969 75.246094 188.824219 76.164062 189.480469 76.59375 C 190.3125 77.378906 191.207031 77.589844 192.164062 77.222656 C 192.726562 76.996094 193.378906 76.5625 194.121094 75.921875 C 196.058594 74.167969 197.460938 72.742188 198.324219 71.648438 C 207.078125 64.765625 213.824219 58.992188 218.558594 54.332031 C 225.265625 47.992188 230.746094 42.359375 235 37.441406 C 239 32.71875 241.097656 29.609375 241.292969 28.113281 C 241.523438 26.902344 241.25 25.957031 240.480469 25.277344 C 239.835938 24.644531 238.910156 24.480469 237.710938 24.789062 " fill-opacity="1" fill-rule="nonzero"/></g></g></g></svg>