<svg xmlns="http://www.w3.org/2000/svg" xmlns:xlink="http://www.w3.org/1999/xlink" width="1919" zoomAndPan="magnify" viewBox="0 0 1440 576" height="768" preserveAspectRatio="xMidYMid meet" version="1.0"><defs><g/><clipPath id="d9ed7e97e5"><path d="M 907.570312 322.28125 L 1039.238281 322.28125 L 1039.238281 453.949219 L 907.570312 453.949219 Z M 907.570312 322.28125 " clip-rule="nonzero"/></clipPath><clipPath id="b7447d20cb"><path d="M 973.402344 322.28125 C 937.042969 322.28125 907.570312 351.753906 907.570312 388.113281 C 907.570312 424.472656 937.042969 453.949219 973.402344 453.949219 C 1009.761719 453.949219 1039.238281 424.472656 1039.238281 388.113281 C 1039.238281 351.753906 1009.761719 322.28125 973.402344 322.28125 Z M 973.402344 322.28125 " clip-rule="nonzero"/></clipPath><clipPath id="6840e6ae68"><path d="M 1263.386719 322.28125 L 1395.054688 322.28125 L 1395.054688 453.949219 L 1263.386719 453.949219 Z M 1263.386719 322.28125 " clip-rule="nonzero"/></clipPath><clipPath id="97aaf87de1"><path d="M 1329.21875 322.28125 C 1292.859375 322.28125 1263.386719 351.753906 1263.386719 388.113281 C 1263.386719 424.472656 1292.859375 453.949219 1329.21875 453.949219 C 1365.578125 453.949219 1395.054688 424.472656 1395.054688 388.113281 C 1395.054688 351.753906 1365.578125 322.28125 1329.21875 322.28125 Z M 1329.21875 322.28125 " clip-rule="nonzero"/></clipPath><clipPath id="b8ac5f6d20"><path d="M 849 291 L 893 291 L 893 303.410156 L 849 303.410156 Z M 849 291 " clip-rule="nonzero"/></clipPath><clipPath id="28b9c7a8ab"><path d="M 780 75.253906 L 870 75.253906 L 870 260 L 780 260 Z M 780 75.253906 " clip-rule="nonzero"/></clipPath><clipPath id="da2732e7dd"><path d="M 874.128906 68 L 972.21875 68 L 972.21875 260 L 874.128906 260 Z M 874.128906 68 " clip-rule="nonzero"/></clipPath><clipPath id="56259d0aa4"><path d="M 749 72 L 799 72 L 799 93 L 749 93 Z M 749 72 " clip-rule="nonzero"/></clipPath><clipPath id="6282989201"><path d="M 736.859375 33.296875 L 903.667969 -15.824219 L 924.351562 54.410156 L 757.539062 103.53125 Z M 736.859375 33.296875 " clip-rule="nonzero"/></clipPath><clipPath id="3b830ce677"><path d="M 736.859375 33.296875 L 903.667969 -15.824219 L 924.351562 54.410156 L 757.539062 103.53125 Z M 736.859375 33.296875 " clip-rule="nonzero"/></clipPath><clipPath id="e1f3e2bb34"><path d="M 781 43 L 811 43 L 811 70 L 781 70 Z M 781 43 " clip-rule="nonzero"/></clipPath><clipPath id="2a14c57efb"><path d="M 736.859375 33.296875 L 903.667969 -15.824219 L 924.351562 54.410156 L 757.539062 103.53125 Z M 736.859375 33.296875 " clip-rule="nonzero"/></clipPath><clipPath id="24db48ac3d"><path d="M 736.859375 33.296875 L 903.667969 -15.824219 L 924.351562 54.410156 L 757.539062 103.53125 Z M 736.859375 33.296875 " clip-rule="nonzero"/></clipPath><clipPath id="1feb951b71"><path d="M 812 10 L 832 10 L 832 62 L 812 62 Z M 812 10 " clip-rule="nonzero"/></clipPath><clipPath id="86f22ab29a"><path d="M 736.859375 33.296875 L 903.667969 -15.824219 L 924.351562 54.410156 L 757.539062 103.53125 Z M 736.859375 33.296875 " clip-rule="nonzero"/></clipPath><clipPath id="ed4962f857"><path d="M 736.859375 33.296875 L 903.667969 -15.824219 L 924.351562 54.410156 L 757.539062 103.53125 Z M 736.859375 33.296875 " clip-rule="nonzero"/></clipPath><clipPath id="f101f66d54"><path d="M 814 15 L 825 15 L 825 39 L 814 39 Z M 814 15 " clip-rule="nonzero"/></clipPath><clipPath id="6821ee8878"><path d="M 736.859375 33.296875 L 903.667969 -15.824219 L 924.351562 54.410156 L 757.539062 103.53125 Z M 736.859375 33.296875 " clip-rule="nonzero"/></clipPath><clipPath id="9be19f7151"><path d="M 736.859375 33.296875 L 903.667969 -15.824219 L 924.351562 54.410156 L 757.539062 103.53125 Z M 736.859375 33.296875 " clip-rule="nonzero"/></clipPath><clipPath id="6a5fc9e5e0"><path d="M 850 22 L 862 22 L 862 61 L 850 61 Z M 850 22 " clip-rule="nonzero"/></clipPath><clipPath id="b073ce49a5"><path d="M 736.859375 33.296875 L 903.667969 -15.824219 L 924.351562 54.410156 L 757.539062 103.53125 Z M 736.859375 33.296875 " clip-rule="nonzero"/></clipPath><clipPath id="5705961e01"><path d="M 736.859375 33.296875 L 903.667969 -15.824219 L 924.351562 54.410156 L 757.539062 103.53125 Z M 736.859375 33.296875 " clip-rule="nonzero"/></clipPath><clipPath id="4dd04bcc02"><path d="M 871 24 L 915 24 L 915 68 L 871 68 Z M 871 24 " clip-rule="nonzero"/></clipPath><clipPath id="59c9429c5e"><path d="M 736.859375 33.296875 L 903.667969 -15.824219 L 924.351562 54.410156 L 757.539062 103.53125 Z M 736.859375 33.296875 " clip-rule="nonzero"/></clipPath><clipPath id="8982e24e94"><path d="M 736.859375 33.296875 L 903.667969 -15.824219 L 924.351562 54.410156 L 757.539062 103.53125 Z M 736.859375 33.296875 " clip-rule="nonzero"/></clipPath></defs><rect x="-144" width="1728" fill="#ffffff" y="-57.6" height="691.2" fill-opacity="1"/><rect x="-144" width="1728" fill="#43565f" y="-57.6" height="691.2" fill-opacity="1"/><g clip-path="url(#d9ed7e97e5)"><g clip-path="url(#b7447d20cb)"><path fill="#fcffe9" d="M 907.570312 322.28125 L 1039.238281 322.28125 L 1039.238281 453.949219 L 907.570312 453.949219 Z M 907.570312 322.28125 " fill-opacity="1" fill-rule="nonzero"/></g></g><g clip-path="url(#6840e6ae68)"><g clip-path="url(#97aaf87de1)"><path fill="#fcffe9" d="M 1263.386719 322.28125 L 1395.054688 322.28125 L 1395.054688 453.949219 L 1263.386719 453.949219 Z M 1263.386719 322.28125 " fill-opacity="1" fill-rule="nonzero"/></g></g><g fill="#fcffe9" fill-opacity="1"><g transform="translate(-6.756495, 484.103209)"><g><path d="M 196.640625 -137.65625 C 201.679688 -135.382812 206.722656 -130.84375 211.765625 -124.03125 C 221.847656 -110.675781 226.890625 -92.90625 226.890625 -70.71875 C 226.890625 -43.738281 215.164062 -23.820312 191.71875 -10.96875 C 179.875 -4.664062 168.023438 -1.007812 156.171875 0 L 22.6875 0 L 22.6875 -245.796875 L 136.515625 -245.796875 C 145.835938 -245.796875 155.796875 -243.78125 166.390625 -239.75 C 187.316406 -231.6875 200.675781 -217.695312 206.46875 -197.78125 C 210.757812 -183.40625 210.382812 -169.035156 205.34375 -154.671875 C 202.820312 -147.609375 199.921875 -141.9375 196.640625 -137.65625 Z M 81.6875 -200.046875 L 81.6875 -145.21875 L 134.25 -145.21875 C 141.8125 -145.21875 148.363281 -147.863281 153.90625 -153.15625 C 159.195312 -158.445312 161.84375 -164.875 161.84375 -172.4375 C 161.84375 -180.25 159.195312 -186.804688 153.90625 -192.109375 C 148.363281 -197.398438 141.8125 -200.046875 134.25 -200.046875 Z M 180.765625 -72.609375 C 180.765625 -80.171875 178.113281 -86.722656 172.8125 -92.265625 C 167.519531 -97.566406 161.09375 -100.21875 153.53125 -100.21875 L 81.6875 -100.21875 L 81.6875 -45.375 L 153.53125 -45.375 C 161.09375 -45.375 167.519531 -48.019531 172.8125 -53.3125 C 178.113281 -58.613281 180.765625 -65.046875 180.765625 -72.609375 Z M 180.765625 -72.609375 "/></g></g></g><g fill="#fcffe9" fill-opacity="1"><g transform="translate(231.454756, 484.103209)"><g><path d="M 64.28125 -165.625 C 68.570312 -177.726562 75.757812 -186.175781 85.84375 -190.96875 C 95.675781 -195.757812 110.421875 -198.15625 130.078125 -198.15625 L 130.078125 -144.078125 C 110.921875 -144.078125 94.914062 -137.519531 82.0625 -124.40625 C 70.207031 -112.8125 64.28125 -100.082031 64.28125 -86.21875 L 64.28125 0 L 11.34375 0 L 11.34375 -194.75 L 64.28125 -194.75 Z M 64.28125 -165.625 "/></g></g></g><g fill="#fcffe9" fill-opacity="1"><g transform="translate(367.197342, 484.103209)"><g><path d="M 151.265625 -195.5 L 204.203125 -195.5 L 204.203125 0 L 151.265625 0 L 151.265625 -21.9375 C 140.421875 -7.8125 124.035156 -0.75 102.109375 -0.75 C 75.378906 -0.5 52.4375 -9.828125 33.28125 -28.734375 C 14.113281 -47.648438 4.40625 -70.59375 4.15625 -97.5625 C 3.90625 -124.289062 13.234375 -147.234375 32.140625 -166.390625 C 51.046875 -185.546875 73.988281 -195.25 100.96875 -195.5 C 123.15625 -195.5 139.921875 -188.316406 151.265625 -173.953125 Z M 135.375 -64.28125 C 144.707031 -73.613281 149.375 -84.960938 149.375 -98.328125 C 149.375 -111.929688 144.582031 -123.273438 135 -132.359375 C 125.414062 -141.929688 114.195312 -146.46875 101.34375 -145.96875 C 87.976562 -145.96875 76.632812 -141.300781 67.3125 -131.96875 C 57.976562 -122.644531 53.3125 -111.300781 53.3125 -97.9375 C 53.3125 -84.832031 58.101562 -73.488281 67.6875 -63.90625 C 77.019531 -54.582031 88.363281 -49.921875 101.71875 -49.921875 C 115.332031 -50.421875 126.550781 -55.207031 135.375 -64.28125 Z M 135.375 -64.28125 "/></g></g></g><g fill="#fcffe9" fill-opacity="1"><g transform="translate(582.721813, 484.103209)"><g><path d="M 63.90625 -263.578125 L 63.90625 -218.953125 L 11.34375 -218.953125 L 11.34375 -263.578125 Z M 64.28125 -194.375 L 64.28125 0 L 11.34375 0 L 11.34375 -194.375 Z M 64.28125 -194.375 "/></g></g></g><g fill="#fcffe9" fill-opacity="1"><g transform="translate(658.344435, 484.103209)"><g><path d="M 108.15625 -194 C 135.882812 -196.257812 158.828125 -189.070312 176.984375 -172.4375 C 196.390625 -154.539062 206.09375 -129.457031 206.09375 -97.1875 L 206.09375 0 L 156.9375 0 L 156.9375 -96.046875 L 156.5625 -96.046875 L 156.5625 -96.8125 C 156.5625 -110.164062 151.894531 -121.507812 142.5625 -130.84375 C 133.238281 -140.164062 121.894531 -144.828125 108.53125 -144.828125 C 94.914062 -144.328125 83.570312 -139.539062 74.5 -130.46875 C 64.914062 -120.882812 60.378906 -109.539062 60.890625 -96.4375 L 60.890625 -96.046875 L 60.5 -96.046875 L 60.5 0 L 7.5625 0 L 7.5625 -195.5 L 60.5 -195.5 L 60.5 -170.171875 C 72.351562 -184.285156 88.238281 -192.226562 108.15625 -194 Z M 108.15625 -194 "/></g></g></g><g fill="#f97930" fill-opacity="1"><g transform="translate(871.991811, 484.103209)"><g><path d="M 100.96875 -194.75 C 127.945312 -195 150.890625 -185.671875 169.796875 -166.765625 C 188.953125 -147.609375 198.53125 -124.664062 198.53125 -97.9375 C 198.78125 -70.96875 189.453125 -48.03125 170.546875 -29.125 C 151.640625 -9.957031 128.828125 -0.25 102.109375 0 C 75.128906 0.25 52.0625 -9.078125 32.90625 -27.984375 C 13.738281 -46.890625 4.15625 -69.832031 4.15625 -96.8125 C 3.90625 -123.78125 13.234375 -146.71875 32.140625 -165.625 C 51.046875 -184.789062 73.988281 -194.5 100.96875 -194.75 Z M 135.375 -63.53125 C 144.707031 -72.851562 149.375 -84.195312 149.375 -97.5625 C 149.375 -110.675781 144.582031 -122.019531 135 -131.59375 C 125.414062 -140.675781 114.070312 -145.21875 100.96875 -145.21875 C 87.851562 -145.21875 76.632812 -140.550781 67.3125 -131.21875 C 57.976562 -121.382812 53.3125 -110.039062 53.3125 -97.1875 C 53.3125 -84.070312 58.101562 -72.726562 67.6875 -63.15625 C 77.019531 -53.820312 88.363281 -49.15625 101.71875 -49.15625 C 115.332031 -49.664062 126.550781 -54.457031 135.375 -63.53125 Z M 135.375 -63.53125 "/></g></g></g><g fill="#fcffe9" fill-opacity="1"><g transform="translate(1074.692243, 484.103209)"><g><path d="M 64.28125 -262.8125 L 64.28125 0 L 11.34375 0 L 11.34375 -262.8125 Z M 64.28125 -262.8125 "/></g></g></g><g fill="#fcffe9" fill-opacity="1"><g transform="translate(1150.314864, 484.103209)"><g><path d="M 63.90625 -263.578125 L 63.90625 -218.953125 L 11.34375 -218.953125 L 11.34375 -263.578125 Z M 64.28125 -194.375 L 64.28125 0 L 11.34375 0 L 11.34375 -194.375 Z M 64.28125 -194.375 "/></g></g></g><g fill="#f97930" fill-opacity="1"><g transform="translate(1225.937581, 484.103209)"><g><path d="M 100.96875 -194.75 C 127.945312 -195 150.890625 -185.671875 169.796875 -166.765625 C 188.953125 -147.609375 198.53125 -124.664062 198.53125 -97.9375 C 198.78125 -70.96875 189.453125 -48.03125 170.546875 -29.125 C 151.640625 -9.957031 128.828125 -0.25 102.109375 0 C 75.128906 0.25 52.0625 -9.078125 32.90625 -27.984375 C 13.738281 -46.890625 4.15625 -69.832031 4.15625 -96.8125 C 3.90625 -123.78125 13.234375 -146.71875 32.140625 -165.625 C 51.046875 -184.789062 73.988281 -194.5 100.96875 -194.75 Z M 135.375 -63.53125 C 144.707031 -72.851562 149.375 -84.195312 149.375 -97.5625 C 149.375 -110.675781 144.582031 -122.019531 135 -131.59375 C 125.414062 -140.675781 114.070312 -145.21875 100.96875 -145.21875 C 87.851562 -145.21875 76.632812 -140.550781 67.3125 -131.21875 C 57.976562 -121.382812 53.3125 -110.039062 53.3125 -97.1875 C 53.3125 -84.070312 58.101562 -72.726562 67.6875 -63.15625 C 77.019531 -53.820312 88.363281 -49.15625 101.71875 -49.15625 C 115.332031 -49.664062 126.550781 -54.457031 135.375 -63.53125 Z M 135.375 -63.53125 "/></g></g></g><g clip-path="url(#b8ac5f6d20)"><path fill="#f97930" d="M 892.226562 291.871094 C 887.507812 299.589844 879.789062 304.738281 870.78125 304.738281 C 862.199219 304.738281 854.480469 299.589844 849.332031 291.871094 Z M 892.226562 291.871094 " fill-opacity="1" fill-rule="evenodd"/></g><path fill="#f97930" d="M 838.609375 272.136719 L 903.378906 272.136719 C 903.832031 272.136719 904.269531 272.242188 904.691406 272.449219 C 905.113281 272.65625 905.484375 272.949219 905.804688 273.332031 C 906.125 273.714844 906.375 274.15625 906.550781 274.652344 C 906.722656 275.152344 906.808594 275.671875 906.808594 276.214844 C 906.808594 276.753906 906.722656 277.273438 906.550781 277.773438 C 906.375 278.273438 906.125 278.710938 905.804688 279.09375 C 905.484375 279.476562 905.113281 279.769531 904.691406 279.976562 C 904.269531 280.183594 903.832031 280.289062 903.378906 280.289062 L 838.609375 280.289062 C 838.15625 280.289062 837.71875 280.183594 837.296875 279.976562 C 836.875 279.769531 836.503906 279.476562 836.183594 279.09375 C 835.863281 278.710938 835.613281 278.273438 835.4375 277.773438 C 835.265625 277.273438 835.179688 276.753906 835.179688 276.214844 C 835.179688 275.671875 835.265625 275.152344 835.4375 274.652344 C 835.613281 274.15625 835.863281 273.714844 836.183594 273.332031 C 836.503906 272.949219 836.875 272.65625 837.296875 272.449219 C 837.71875 272.242188 838.15625 272.136719 838.609375 272.136719 Z M 838.609375 272.136719 " fill-opacity="1" fill-rule="evenodd"/><path fill="#f97930" d="M 843.328125 284.148438 L 898.230469 284.148438 C 898.574219 284.148438 898.902344 284.253906 899.214844 284.457031 C 899.53125 284.664062 899.808594 284.960938 900.050781 285.34375 C 900.292969 285.722656 900.476562 286.164062 900.609375 286.664062 C 900.738281 287.164062 900.804688 287.683594 900.804688 288.222656 C 900.804688 288.765625 900.738281 289.285156 900.609375 289.78125 C 900.476562 290.28125 900.292969 290.722656 900.050781 291.105469 C 899.808594 291.488281 899.53125 291.78125 899.214844 291.988281 C 898.902344 292.195312 898.574219 292.296875 898.230469 292.296875 L 843.328125 292.296875 C 842.988281 292.296875 842.660156 292.195312 842.34375 291.988281 C 842.027344 291.78125 841.75 291.488281 841.507812 291.105469 C 841.265625 290.722656 841.082031 290.28125 840.949219 289.78125 C 840.820312 289.285156 840.753906 288.765625 840.753906 288.222656 C 840.753906 287.683594 840.820312 287.164062 840.949219 286.664062 C 841.082031 286.164062 841.265625 285.722656 841.507812 285.34375 C 841.75 284.960938 842.027344 284.664062 842.34375 284.457031 C 842.660156 284.253906 842.988281 284.148438 843.328125 284.148438 Z M 843.328125 284.148438 " fill-opacity="1" fill-rule="evenodd"/><path fill="#fcffe9" d="M 824.578125 226.910156 C 824.027344 228.425781 824.785156 230.148438 826.28125 230.703125 C 827.800781 231.257812 829.480469 230.457031 830.054688 228.9375 C 833.027344 221.042969 841.886719 217.003906 849.824219 219.957031 C 851.363281 220.511719 853.023438 219.710938 853.597656 218.191406 C 854.171875 216.675781 853.433594 214.992188 851.894531 214.417969 C 840.925781 210.359375 828.679688 215.957031 824.578125 226.910156 Z M 824.578125 226.910156 " fill-opacity="1" fill-rule="nonzero"/><g clip-path="url(#28b9c7a8ab)"><path fill="#fcffe9" d="M 862.355469 78 C 858.335938 75.375 853.25 75.210938 847.34375 77.449219 C 846.871094 77.589844 837.046875 81.097656 830.671875 87.128906 C 830.261719 87.105469 829.890625 87.046875 829.480469 87.046875 C 817.769531 87.046875 808.277344 96.5625 808.277344 108.292969 C 808.277344 111.082031 808.828125 113.789062 809.894531 116.332031 C 799.539062 119.179688 791.910156 128.53125 791.910156 139.769531 C 791.910156 141.902344 792.300781 143.996094 792.8125 146.046875 C 785.410156 150.394531 780.714844 158.371094 780.714844 167.066406 C 780.714844 173.34375 783.132812 179.003906 787.070312 183.328125 C 785.636719 186.488281 784.816406 189.933594 784.816406 193.460938 C 784.816406 203.285156 790.78125 212.039062 799.601562 215.855469 C 798.71875 218.171875 798.246094 220.695312 798.246094 223.21875 C 798.246094 234.949219 807.761719 244.441406 819.492188 244.441406 C 820.027344 244.441406 820.601562 244.320312 821.175781 244.277344 C 824.375 253.054688 833.871094 259.230469 844.921875 259.230469 C 858.664062 259.230469 869.863281 249.691406 869.863281 238.003906 L 869.863281 217.25 C 869.863281 217.25 869.863281 217.25 869.863281 217.207031 L 869.863281 138.683594 C 869.863281 138.683594 869.863281 138.683594 869.863281 138.664062 L 869.863281 138.644531 L 869.839844 92.746094 C 869.839844 92.335938 869.207031 82.472656 862.355469 78 Z M 863.996094 124.101562 C 860.140625 120.023438 854.683594 117.4375 848.613281 117.4375 C 846.996094 117.4375 845.683594 118.75 845.683594 120.371094 C 845.683594 121.96875 846.996094 123.304688 848.613281 123.304688 C 857.105469 123.304688 863.996094 130.195312 863.996094 138.683594 L 863.996094 202.6875 C 860.140625 198.609375 854.683594 196.003906 848.613281 196.003906 C 846.996094 195.984375 845.683594 197.296875 845.683594 198.894531 C 845.683594 200.535156 846.996094 201.828125 848.613281 201.828125 C 857.105469 201.828125 863.996094 208.757812 863.996094 217.207031 L 863.996094 238.003906 C 863.996094 246.453125 855.464844 253.382812 844.921875 253.382812 C 835.59375 253.382812 827.65625 247.96875 826.117188 240.566406 C 825.769531 238.988281 824.191406 238.003906 822.609375 238.269531 C 822.609375 238.269531 822.589844 238.269531 822.570312 238.269531 C 821.566406 238.515625 820.539062 238.597656 819.492188 238.597656 C 811.003906 238.597656 804.09375 231.707031 804.09375 223.21875 C 804.09375 220.53125 804.808594 217.925781 806.121094 215.609375 C 806.203125 215.484375 806.226562 215.320312 806.265625 215.15625 C 806.285156 215.074219 806.367188 215.035156 806.429688 214.953125 C 806.429688 214.871094 806.429688 214.746094 806.429688 214.625 C 806.449219 214.5 806.449219 214.378906 806.449219 214.214844 C 806.449219 213.96875 806.449219 213.742188 806.429688 213.539062 C 806.367188 213.394531 806.328125 213.269531 806.265625 213.167969 C 806.183594 212.921875 806.101562 212.757812 805.957031 212.574219 C 805.898438 212.429688 805.773438 212.328125 805.671875 212.203125 C 805.507812 212.039062 805.34375 211.917969 805.199219 211.753906 C 805.117188 211.710938 805.097656 211.671875 805.015625 211.628906 C 804.914062 211.546875 804.769531 211.546875 804.625 211.488281 C 804.542969 211.445312 804.460938 211.40625 804.359375 211.363281 C 796.300781 209.148438 790.699219 201.785156 790.699219 193.460938 C 790.699219 191.410156 791.152344 189.378906 791.808594 187.492188 C 795.644531 189.972656 800.195312 191.492188 805.117188 191.492188 C 806.71875 191.492188 808.050781 190.179688 808.050781 188.558594 C 808.050781 186.917969 806.71875 185.585938 805.117188 185.585938 C 794.863281 185.585938 786.578125 177.28125 786.578125 167.046875 C 786.578125 159.847656 790.78125 153.285156 797.304688 150.230469 L 797.324219 150.230469 C 797.367188 150.210938 797.40625 150.167969 797.449219 150.148438 C 799.867188 149.0625 802.453125 148.507812 805.117188 148.507812 C 806.71875 148.507812 808.050781 147.195312 808.050781 145.574219 C 808.050781 143.953125 806.71875 142.683594 805.117188 142.683594 C 802.738281 142.683594 800.484375 143.113281 798.246094 143.769531 C 797.960938 142.457031 797.753906 141.125 797.753906 139.769531 C 797.753906 129.539062 806.101562 121.230469 816.316406 121.230469 C 823.390625 121.230469 829.726562 125.148438 832.90625 131.484375 C 833.644531 132.941406 835.386719 133.496094 836.84375 132.777344 C 838.277344 132.058594 838.875 130.316406 838.136719 128.859375 C 833.972656 120.535156 825.625 115.367188 816.316406 115.367188 C 816.210938 115.367188 816.128906 115.386719 816.007812 115.386719 C 814.839844 113.191406 814.121094 110.792969 814.121094 108.269531 C 814.121094 99.78125 821.011719 92.890625 829.5 92.890625 C 835.078125 92.890625 840.226562 95.925781 842.953125 100.804688 C 844.183594 103.082031 844.863281 105.667969 844.863281 108.269531 C 844.863281 109.871094 846.195312 111.203125 847.792969 111.203125 C 849.414062 111.203125 850.746094 109.871094 850.746094 108.269531 C 850.746094 104.660156 849.824219 101.09375 848.082031 97.976562 C 845.722656 93.792969 842.132812 90.632812 837.890625 88.789062 C 843.097656 85.179688 849.1875 83.003906 849.3125 82.945312 C 853.476562 81.386719 856.796875 81.363281 859.15625 82.902344 C 863.464844 85.710938 863.996094 92.910156 863.996094 92.910156 Z M 863.996094 124.101562 " fill-opacity="1" fill-rule="nonzero"/></g><path fill="#fcffe9" d="M 832.351562 152.691406 C 832.066406 151.132812 830.527344 150.085938 828.925781 150.394531 C 827.328125 150.703125 826.324219 152.238281 826.628906 153.820312 C 827.738281 159.703125 830.855469 164.851562 835.285156 168.769531 C 835.183594 169.136719 835.121094 169.507812 835.140625 169.898438 C 835.632812 178.367188 829.171875 185.6875 820.722656 186.199219 C 819.082031 186.28125 817.875 187.675781 817.957031 189.277344 C 818.058594 190.835938 819.351562 192.046875 820.886719 192.046875 C 820.929688 192.046875 820.992188 192.046875 821.09375 192.046875 C 831.714844 191.410156 839.980469 182.960938 840.863281 172.605469 C 844.59375 174.492188 848.65625 175.476562 852.796875 175.476562 C 854.5 175.476562 856.203125 175.332031 857.863281 175.003906 C 859.421875 174.714844 860.46875 173.179688 860.183594 171.578125 C 859.894531 170.019531 858.296875 168.953125 856.757812 169.261719 C 851.261719 170.328125 845.722656 169.179688 841.148438 166.042969 C 836.515625 162.902344 833.398438 158.167969 832.351562 152.691406 Z M 832.351562 152.691406 " fill-opacity="1" fill-rule="nonzero"/><g clip-path="url(#da2732e7dd)"><path fill="#f97930" d="M 947.265625 149.515625 C 945.839844 147.300781 942.871094 144.316406 940.714844 142.929688 C 938.753906 141.40625 934.820312 139.828125 932.445312 139.652344 L 927.640625 139.332031 C 911.78125 139.546875 893.832031 148.0625 885.648438 162.011719 C 884.6875 163.859375 883.742188 165.539062 883.148438 167.542969 C 881.898438 171.390625 881.511719 176.445312 884.054688 179.878906 C 886.917969 183.757812 892.445312 184.570312 896.949219 184.300781 C 897.75 184.210938 899.273438 184.132812 900.113281 183.960938 C 903.179688 183.375 906.191406 182.761719 909.078125 181.515625 C 922.960938 176.101562 938.492188 161.789062 947.671875 150.09375 Z M 894.160156 239.046875 C 895.636719 239.011719 896.601562 238.816406 897.9375 238.261719 C 900.925781 236.878906 902.769531 234.390625 903.1875 231.445312 C 903.335938 230.675781 903.191406 229.199219 902.933594 228.464844 C 902.359375 226.304688 900.6875 224.386719 898.820312 223.234375 C 897.921875 222.730469 896.960938 222.308594 895.980469 222.160156 C 894.429688 221.992188 893.375 222.03125 891.792969 222.59375 C 889.105469 223.574219 886.84375 225.816406 885.988281 228.558594 C 885.0625 231.457031 885.773438 234.785156 887.46875 237.269531 C 891.644531 243.261719 899.785156 242.980469 906.898438 242.335938 C 910.4375 242.039062 914.101562 241.539062 917.660156 241.554688 C 921.066406 239.929688 924.515625 237.769531 928.195312 235.195312 C 938.976562 227.230469 947.507812 216.03125 952.023438 203.394531 C 957.355469 188.558594 957.917969 173.046875 952.125 158.554688 C 946.964844 164.609375 941.253906 170.027344 935.128906 175.097656 C 928.265625 180.792969 920.339844 186.0625 912 189.160156 C 905.402344 191.835938 896.207031 193.09375 889.46875 191.589844 C 874.453125 188.234375 871.683594 174.324219 877.597656 161.636719 L 879.402344 158.300781 C 889.304688 142.015625 910.757812 132.109375 929.664062 133.25 L 933.421875 133.664062 C 936.648438 134.03125 941.535156 136.144531 944.078125 138.164062 C 946.777344 140.023438 949.21875 142.695312 951.175781 145.335938 C 955.46875 139.066406 958.972656 132.328125 961.058594 125.222656 C 961.332031 124.191406 961.699219 123.183594 961.898438 122.144531 C 963.398438 115.109375 964.195312 107.648438 962.214844 100.621094 C 960.175781 93.144531 954.332031 86.980469 947.183594 83.148438 C 931.589844 74.914062 913.839844 79.0625 898.644531 86.402344 C 874.3125 98.269531 855.066406 116.96875 841.761719 140.390625 C 839.808594 143.804688 837.949219 147.308594 836.136719 150.863281 C 833.675781 148.441406 830.996094 146.625 827.890625 145.140625 C 829.546875 141.894531 831.273438 138.660156 833.09375 135.449219 C 847.28125 110.234375 868.257812 90.195312 894.398438 77.550781 C 903.195312 73.339844 912.53125 70.199219 922.273438 69.222656 C 924.558594 68.953125 927.511719 68.824219 929.804688 68.949219 L 937.316406 69.671875 C 947.226562 71.457031 957.25 76.492188 963.816406 84.246094 L 965.078125 85.757812 C 971.289062 93.789062 973.34375 103.164062 972.515625 113.3125 C 972.371094 117.035156 971.609375 120.695312 970.800781 124.316406 C 970.550781 125.53125 970.125 126.6875 969.792969 127.871094 C 966.96875 137.113281 961.878906 146.234375 955.960938 153.84375 C 963.113281 170.175781 962.339844 188.128906 955.785156 204.8125 C 949.578125 220.683594 937.507812 234.015625 922.527344 241.734375 C 924.898438 241.886719 927.253906 242.136719 929.628906 242.523438 C 941.9375 244.484375 953.695312 249.289062 963.777344 256.609375 C 963.625 257.671875 963.5625 258.753906 963.59375 259.839844 C 961.328125 258.46875 958.96875 257.167969 956.582031 256.011719 C 954.0625 254.796875 951.613281 253.734375 949.011719 252.71875 L 948.300781 252.453125 C 942.078125 250.125 935.484375 248.507812 928.894531 247.683594 C 924.347656 247.097656 919.363281 246.859375 914.777344 247.1875 C 906.050781 247.828125 895.382812 250.011719 887.644531 244.710938 C 886.695312 244.015625 885.703125 243.25 884.925781 242.359375 L 884.328125 241.683594 L 884.101562 241.402344 C 882.421875 239.179688 881.402344 237.039062 880.941406 234.1875 C 880.550781 231.792969 880.757812 229.308594 881.609375 227.035156 C 883.140625 223.050781 886.417969 220.011719 890.605469 218.824219 C 892.988281 218.164062 895.34375 218.191406 897.65625 218.996094 C 901.460938 220.324219 904.667969 223.972656 905.285156 227.9375 C 905.511719 228.972656 905.488281 230.839844 905.152344 231.851562 C 904.488281 234.277344 903.125 236.242188 900.9375 237.644531 C 899.648438 238.484375 898.441406 238.894531 896.964844 239.121094 C 896.054688 239.289062 895.070312 239.183594 894.164062 239.046875 Z M 894.160156 239.046875 " fill-opacity="1" fill-rule="evenodd"/></g><g clip-path="url(#56259d0aa4)"><g clip-path="url(#6282989201)"><g clip-path="url(#3b830ce677)"><path fill="#fcffe9" d="M 751.65625 72.5 L 751.585938 72.519531 C 749.707031 73.09375 749.152344 74.34375 749.921875 76.265625 C 750.613281 77.476562 752.667969 78.941406 756.089844 80.660156 C 759.703125 82.320312 767.269531 84.90625 778.789062 88.414062 C 785.0625 90.273438 789.625 91.542969 792.476562 92.222656 C 795.070312 92.820312 796.457031 92.992188 796.636719 92.742188 C 797.136719 92.6875 797.589844 92.152344 797.996094 91.136719 C 798.136719 90.5 797.972656 89.933594 797.496094 89.4375 C 796.921875 88.886719 796.007812 88.238281 794.746094 87.488281 C 790.992188 85.445312 788.328125 84.097656 786.753906 83.453125 C 768.300781 75.089844 756.601562 71.4375 751.65625 72.5 " fill-opacity="1" fill-rule="nonzero"/></g></g></g><g clip-path="url(#e1f3e2bb34)"><g clip-path="url(#2a14c57efb)"><g clip-path="url(#24db48ac3d)"><path fill="#fcffe9" d="M 782.984375 43.503906 L 782.949219 43.515625 C 782.195312 43.832031 781.707031 44.304688 781.476562 44.925781 C 781.320312 45.339844 781.273438 45.8125 781.339844 46.351562 C 781.433594 46.886719 781.546875 47.285156 781.679688 47.558594 C 782.609375 49.625 784.765625 52.347656 788.152344 55.726562 C 790.867188 58.570312 794.832031 61.609375 800.050781 64.847656 C 801.679688 65.929688 803.90625 67.148438 806.738281 68.507812 C 807.808594 69.074219 808.664062 69.265625 809.296875 69.09375 C 809.890625 68.886719 810.265625 68.414062 810.421875 67.667969 C 810.472656 67.339844 810.476562 67.109375 810.433594 66.976562 L 810.1875 66.027344 C 810.109375 65.816406 810.035156 65.671875 809.972656 65.59375 C 806.128906 60.480469 802.558594 56.367188 799.269531 53.25 C 796.363281 50.53125 792.882812 47.90625 788.828125 45.375 C 786.285156 43.933594 784.335938 43.308594 782.984375 43.503906 " fill-opacity="1" fill-rule="nonzero"/></g></g></g><g clip-path="url(#1feb951b71)"><g clip-path="url(#86f22ab29a)"><g clip-path="url(#ed4962f857)"><path fill="#fcffe9" d="M 817.15625 16.863281 L 817.238281 17.074219 C 817.460938 17.644531 817.695312 18.277344 817.9375 18.976562 L 818.09375 19.433594 L 818.261719 19.960938 L 818.445312 20.589844 L 818.652344 21.320312 L 818.878906 22.152344 L 819.121094 23.089844 L 819.386719 24.128906 L 819.671875 25.269531 L 819.976562 26.511719 L 820.289062 27.839844 C 820.085938 27.214844 819.878906 26.558594 819.664062 25.875 C 819.507812 25.378906 819.226562 24.476562 818.824219 23.175781 C 818.175781 20.839844 817.65625 18.917969 817.261719 17.417969 L 817.117188 16.875 L 817.15625 16.863281 M 828.59375 48.210938 L 828.570312 48.339844 L 828.535156 48.464844 L 828.492188 48.582031 L 828.433594 48.695312 L 828.367188 48.800781 L 828.292969 48.898438 L 828.203125 48.992188 L 828.105469 49.082031 L 828 49.164062 C 828.140625 49.039062 828.257812 48.894531 828.351562 48.734375 C 828.449219 48.578125 828.515625 48.40625 828.558594 48.222656 L 828.59375 48.210938 M 815.167969 10.230469 L 815.050781 10.265625 C 814.1875 10.574219 813.609375 11.175781 813.324219 12.070312 L 813.109375 12.886719 C 812.996094 13.488281 812.9375 14.199219 812.945312 15.015625 C 812.949219 16.652344 813.195312 18.726562 813.671875 21.234375 C 814.15625 23.636719 814.675781 25.753906 815.226562 27.578125 C 816.570312 32.082031 817.996094 36.25 819.507812 40.085938 C 819.777344 40.789062 820.710938 43.175781 822.3125 47.246094 L 827.753906 60.035156 C 828.199219 60.921875 828.929688 61.253906 829.9375 61.027344 C 830.488281 60.847656 830.871094 60.464844 831.082031 59.882812 C 831.164062 59.535156 831.191406 59.320312 831.167969 59.246094 C 831.101562 58.808594 831.0625 58.667969 831.054688 58.820312 C 831.179688 58.492188 831.1875 58.03125 831.082031 57.4375 L 828.601562 47.644531 L 823.4375 25.683594 C 822.789062 23.015625 822.257812 20.960938 821.839844 19.523438 C 820.8125 16.136719 819.75 13.625 818.648438 11.988281 C 817.523438 10.488281 816.363281 9.902344 815.167969 10.230469 " fill-opacity="1" fill-rule="nonzero"/></g></g></g><g clip-path="url(#f101f66d54)"><g clip-path="url(#6821ee8878)"><g clip-path="url(#9be19f7151)"><path fill="#fcffe9" d="M 816.25 15.566406 C 815.339844 15.832031 814.792969 16.773438 815.027344 17.703125 C 815.097656 17.984375 815.191406 18.3125 815.308594 18.691406 L 815.320312 18.71875 L 816.070312 20.964844 C 816.28125 21.632812 816.875 23.441406 817.84375 26.390625 L 817.84375 26.394531 C 818.019531 26.933594 818.511719 28.480469 819.308594 31.039062 L 819.308594 31.042969 C 819.441406 31.457031 819.617188 32.015625 819.847656 32.71875 C 820.003906 33.226562 820.492188 34.675781 821.3125 37.066406 C 821.621094 37.972656 822.585938 38.464844 823.496094 38.199219 C 823.519531 38.191406 823.546875 38.183594 823.570312 38.175781 C 824.5 37.855469 824.996094 36.84375 824.675781 35.914062 C 823.863281 33.53125 823.382812 32.105469 823.238281 31.640625 L 823.230469 31.621094 C 823.011719 30.941406 822.835938 30.390625 822.703125 29.976562 L 822.707031 29.980469 C 821.902344 27.40625 821.40625 25.839844 821.222656 25.277344 L 821.222656 25.28125 C 820.257812 22.34375 819.667969 20.535156 819.453125 19.859375 L 819.445312 19.835938 L 818.703125 17.621094 C 818.605469 17.3125 818.53125 17.050781 818.476562 16.839844 C 818.238281 15.886719 817.273438 15.308594 816.320312 15.546875 C 816.296875 15.550781 816.273438 15.558594 816.25 15.566406 Z M 816.25 15.566406 " fill-opacity="1" fill-rule="nonzero"/></g></g></g><g clip-path="url(#6a5fc9e5e0)"><g clip-path="url(#b073ce49a5)"><g clip-path="url(#5705961e01)"><path fill="#fcffe9" d="M 858.417969 22.566406 L 858.285156 22.609375 C 857.632812 22.878906 857.09375 23.355469 856.671875 24.046875 C 856.0625 24.984375 855.425781 26.464844 854.761719 28.480469 C 853.855469 31.621094 853.246094 34.046875 852.9375 35.75 C 852.511719 37.820312 852.148438 39.914062 851.851562 42.027344 L 851.457031 45.207031 C 851.222656 47.339844 851.054688 49.488281 850.953125 51.65625 L 850.84375 54.925781 L 850.835938 58.734375 C 850.863281 59.332031 851.09375 59.820312 851.523438 60.195312 C 852.160156 60.613281 852.734375 60.746094 853.246094 60.597656 C 853.78125 60.421875 854.199219 59.976562 854.503906 59.253906 L 855.898438 55.679688 C 856.433594 54.167969 856.941406 52.605469 857.421875 50.992188 C 858.675781 47.03125 859.980469 41.183594 861.328125 33.457031 C 861.683594 30.992188 861.847656 28.957031 861.828125 27.351562 C 861.816406 26.550781 861.753906 25.859375 861.648438 25.273438 L 861.453125 24.472656 C 860.847656 22.917969 859.835938 22.28125 858.417969 22.566406 " fill-opacity="1" fill-rule="nonzero"/></g></g></g><g clip-path="url(#4dd04bcc02)"><g clip-path="url(#59c9429c5e)"><g clip-path="url(#8982e24e94)"><path fill="#fcffe9" d="M 911.710938 24.484375 L 911.121094 24.710938 C 903.957031 28.957031 894.363281 38.003906 882.332031 51.859375 L 879.117188 55.75 L 872.328125 64.457031 C 871.847656 65.601562 871.871094 66.351562 872.40625 66.699219 C 873.085938 67.339844 873.816406 67.511719 874.59375 67.214844 C 875.050781 67.027344 875.582031 66.675781 876.1875 66.152344 C 877.769531 64.722656 878.910156 63.5625 879.613281 62.671875 C 886.75 57.058594 892.246094 52.355469 896.105469 48.558594 C 901.570312 43.390625 906.039062 38.800781 909.503906 34.792969 C 912.761719 30.945312 914.472656 28.410156 914.632812 27.191406 C 914.816406 26.203125 914.597656 25.433594 913.96875 24.882812 C 913.445312 24.363281 912.691406 24.234375 911.710938 24.484375 " fill-opacity="1" fill-rule="nonzero"/></g></g></g><g fill="#fcffe9" fill-opacity="1"><g transform="translate(13.61905, 559.039725)"><g><path d="M 5.921875 0 L 5.921875 -47.03125 L 14.6875 -47.03125 L 39.34375 -8.546875 L 39.84375 -8.546875 L 39.40625 -47.03125 L 45.828125 -47.03125 L 45.828125 0 L 37.765625 0 L 12.46875 -39.34375 L 11.90625 -39.34375 L 12.328125 0 Z M 5.921875 0 "/></g></g></g><g fill="#fcffe9" fill-opacity="1"><g transform="translate(65.358496, 559.039725)"><g><path d="M 17.3125 0.921875 C 15.457031 0.921875 13.84375 0.632812 12.46875 0.0625 C 11.09375 -0.5 9.914062 -1.289062 8.9375 -2.3125 C 7.96875 -3.332031 7.1875 -4.566406 6.59375 -6.015625 C 6 -7.472656 5.554688 -9.078125 5.265625 -10.828125 C 4.984375 -12.585938 4.84375 -14.488281 4.84375 -16.53125 L 4.84375 -36.84375 L 11.40625 -36.84375 L 11.40625 -18.03125 C 11.40625 -16.5625 11.472656 -15.050781 11.609375 -13.5 C 11.753906 -11.957031 12.078125 -10.53125 12.578125 -9.21875 C 13.078125 -7.914062 13.847656 -6.859375 14.890625 -6.046875 C 15.941406 -5.242188 17.367188 -4.84375 19.171875 -4.84375 C 20.640625 -4.84375 21.96875 -5.210938 23.15625 -5.953125 C 24.34375 -6.691406 25.375 -7.738281 26.25 -9.09375 C 27.132812 -10.445312 27.847656 -12.0625 28.390625 -13.9375 C 28.941406 -15.8125 29.335938 -17.890625 29.578125 -20.171875 L 29.578125 -36.84375 L 36.0625 -36.84375 L 36.0625 0 L 30.28125 0 L 30.859375 -12.1875 L 29.78125 -12.1875 C 29.21875 -9.144531 28.363281 -6.648438 27.21875 -4.703125 C 26.082031 -2.753906 24.679688 -1.328125 23.015625 -0.421875 C 21.359375 0.472656 19.457031 0.921875 17.3125 0.921875 Z M 17.3125 0.921875 "/></g></g></g><g fill="#fcffe9" fill-opacity="1"><g transform="translate(106.835589, 559.039725)"><g><path d="M 5.421875 0 L 5.421875 -36.84375 L 11.328125 -36.84375 L 10.6875 -23.65625 L 11.828125 -23.65625 C 12.253906 -26.550781 12.914062 -29.046875 13.8125 -31.140625 C 14.71875 -33.234375 15.929688 -34.859375 17.453125 -36.015625 C 18.972656 -37.179688 20.804688 -37.765625 22.953125 -37.765625 C 23.472656 -37.765625 24.039062 -37.71875 24.65625 -37.625 C 25.269531 -37.53125 25.984375 -37.363281 26.796875 -37.125 L 26.4375 -30.28125 C 25.726562 -30.570312 25.015625 -30.785156 24.296875 -30.921875 C 23.585938 -31.066406 22.898438 -31.140625 22.234375 -31.140625 C 20.378906 -31.140625 18.773438 -30.519531 17.421875 -29.28125 C 16.066406 -28.050781 14.945312 -26.398438 14.0625 -24.328125 C 13.1875 -22.265625 12.46875 -19.90625 11.90625 -17.25 L 11.90625 0 Z M 5.421875 0 "/></g></g></g><g fill="#fcffe9" fill-opacity="1"><g transform="translate(134.914588, 559.039725)"><g><path d="M 16.96875 0.71875 C 15.300781 0.71875 13.835938 0.488281 12.578125 0.03125 C 11.316406 -0.414062 10.257812 -1.101562 9.40625 -2.03125 C 8.550781 -2.957031 7.910156 -4.117188 7.484375 -5.515625 C 7.054688 -6.921875 6.84375 -8.597656 6.84375 -10.546875 L 6.84375 -31.421875 L 1.421875 -31.421875 L 1.5 -36.765625 L 4.78125 -36.765625 C 6.007812 -36.816406 6.894531 -37.054688 7.4375 -37.484375 C 7.988281 -37.910156 8.335938 -38.671875 8.484375 -39.765625 L 9.125 -45.109375 L 13.1875 -45.109375 L 13.1875 -36.84375 L 23.65625 -36.84375 L 23.65625 -31.28125 L 13.1875 -31.28125 L 13.1875 -10.6875 C 13.1875 -8.695312 13.648438 -7.304688 14.578125 -6.515625 C 15.503906 -5.734375 16.726562 -5.34375 18.25 -5.34375 C 19.144531 -5.34375 20.066406 -5.460938 21.015625 -5.703125 C 21.972656 -5.941406 22.925781 -6.394531 23.875 -7.0625 L 23.875 -0.5625 C 22.539062 -0.09375 21.289062 0.234375 20.125 0.421875 C 18.96875 0.617188 17.914062 0.71875 16.96875 0.71875 Z M 16.96875 0.71875 "/></g></g></g><g fill="#fcffe9" fill-opacity="1"><g transform="translate(161.140654, 559.039725)"><g><path d="M 17.3125 0.921875 C 15.457031 0.921875 13.84375 0.632812 12.46875 0.0625 C 11.09375 -0.5 9.914062 -1.289062 8.9375 -2.3125 C 7.96875 -3.332031 7.1875 -4.566406 6.59375 -6.015625 C 6 -7.472656 5.554688 -9.078125 5.265625 -10.828125 C 4.984375 -12.585938 4.84375 -14.488281 4.84375 -16.53125 L 4.84375 -36.84375 L 11.40625 -36.84375 L 11.40625 -18.03125 C 11.40625 -16.5625 11.472656 -15.050781 11.609375 -13.5 C 11.753906 -11.957031 12.078125 -10.53125 12.578125 -9.21875 C 13.078125 -7.914062 13.847656 -6.859375 14.890625 -6.046875 C 15.941406 -5.242188 17.367188 -4.84375 19.171875 -4.84375 C 20.640625 -4.84375 21.96875 -5.210938 23.15625 -5.953125 C 24.34375 -6.691406 25.375 -7.738281 26.25 -9.09375 C 27.132812 -10.445312 27.847656 -12.0625 28.390625 -13.9375 C 28.941406 -15.8125 29.335938 -17.890625 29.578125 -20.171875 L 29.578125 -36.84375 L 36.0625 -36.84375 L 36.0625 0 L 30.28125 0 L 30.859375 -12.1875 L 29.78125 -12.1875 C 29.21875 -9.144531 28.363281 -6.648438 27.21875 -4.703125 C 26.082031 -2.753906 24.679688 -1.328125 23.015625 -0.421875 C 21.359375 0.472656 19.457031 0.921875 17.3125 0.921875 Z M 17.3125 0.921875 "/></g></g></g><g fill="#fcffe9" fill-opacity="1"><g transform="translate(202.617747, 559.039725)"><g><path d="M 5.421875 0 L 5.421875 -36.84375 L 11.328125 -36.84375 L 10.6875 -23.65625 L 11.828125 -23.65625 C 12.253906 -26.550781 12.914062 -29.046875 13.8125 -31.140625 C 14.71875 -33.234375 15.929688 -34.859375 17.453125 -36.015625 C 18.972656 -37.179688 20.804688 -37.765625 22.953125 -37.765625 C 23.472656 -37.765625 24.039062 -37.71875 24.65625 -37.625 C 25.269531 -37.53125 25.984375 -37.363281 26.796875 -37.125 L 26.4375 -30.28125 C 25.726562 -30.570312 25.015625 -30.785156 24.296875 -30.921875 C 23.585938 -31.066406 22.898438 -31.140625 22.234375 -31.140625 C 20.378906 -31.140625 18.773438 -30.519531 17.421875 -29.28125 C 16.066406 -28.050781 14.945312 -26.398438 14.0625 -24.328125 C 13.1875 -22.265625 12.46875 -19.90625 11.90625 -17.25 L 11.90625 0 Z M 5.421875 0 "/></g></g></g><g fill="#fcffe9" fill-opacity="1"><g transform="translate(230.696746, 559.039725)"><g><path d="M 21.375 0.921875 C 18.4375 0.921875 15.859375 0.484375 13.640625 -0.390625 C 11.429688 -1.265625 9.578125 -2.535156 8.078125 -4.203125 C 6.585938 -5.867188 5.445312 -7.851562 4.65625 -10.15625 C 3.875 -12.457031 3.484375 -15.007812 3.484375 -17.8125 C 3.484375 -20.707031 3.863281 -23.367188 4.625 -25.796875 C 5.382812 -28.222656 6.5 -30.328125 7.96875 -32.109375 C 9.445312 -33.890625 11.253906 -35.273438 13.390625 -36.265625 C 15.535156 -37.265625 17.984375 -37.765625 20.734375 -37.765625 C 23.203125 -37.765625 25.421875 -37.347656 27.390625 -36.515625 C 29.367188 -35.691406 31.054688 -34.445312 32.453125 -32.78125 C 33.859375 -31.113281 34.914062 -29.019531 35.625 -26.5 C 36.34375 -23.988281 36.628906 -21.023438 36.484375 -17.609375 L 7.625 -17.390625 L 7.625 -21.8125 L 32.421875 -22.015625 L 30.28125 -19.03125 C 30.519531 -21.976562 30.25 -24.425781 29.46875 -26.375 C 28.6875 -28.320312 27.546875 -29.789062 26.046875 -30.78125 C 24.546875 -31.78125 22.773438 -32.28125 20.734375 -32.28125 C 18.546875 -32.28125 16.632812 -31.707031 15 -30.5625 C 13.363281 -29.425781 12.09375 -27.789062 11.1875 -25.65625 C 10.28125 -23.519531 9.828125 -20.929688 9.828125 -17.890625 C 9.828125 -13.515625 10.8125 -10.175781 12.78125 -7.875 C 14.757812 -5.570312 17.648438 -4.421875 21.453125 -4.421875 C 22.972656 -4.421875 24.289062 -4.609375 25.40625 -4.984375 C 26.519531 -5.367188 27.46875 -5.878906 28.25 -6.515625 C 29.039062 -7.160156 29.679688 -7.921875 30.171875 -8.796875 C 30.671875 -9.679688 31.039062 -10.617188 31.28125 -11.609375 L 37.0625 -10.40625 C 36.632812 -8.644531 35.988281 -7.0625 35.125 -5.65625 C 34.269531 -4.257812 33.191406 -3.070312 31.890625 -2.09375 C 30.585938 -1.125 29.054688 -0.378906 27.296875 0.140625 C 25.535156 0.660156 23.5625 0.921875 21.375 0.921875 Z M 21.375 0.921875 "/></g></g></g><g fill="#fcffe9" fill-opacity="1"><g transform="translate(270.677219, 559.039725)"><g/></g><g transform="translate(288.493804, 559.039725)"><g><path d="M 18.59375 12.25 C 16.695312 12.25 14.8125 12.023438 12.9375 11.578125 C 11.0625 11.128906 9.347656 10.460938 7.796875 9.578125 C 6.253906 8.703125 4.960938 7.550781 3.921875 6.125 L 7.203125 1.359375 C 8.296875 2.972656 9.835938 4.207031 11.828125 5.0625 C 13.828125 5.914062 15.988281 6.34375 18.3125 6.34375 C 20.550781 6.34375 22.425781 5.960938 23.9375 5.203125 C 25.457031 4.441406 26.703125 3.347656 27.671875 1.921875 C 28.648438 0.492188 29.363281 -1.238281 29.8125 -3.28125 C 30.269531 -5.320312 30.5 -7.625 30.5 -10.1875 L 31.21875 -17.390625 L 30 -17.390625 C 29.476562 -13.921875 28.644531 -11.140625 27.5 -9.046875 C 26.363281 -6.960938 24.972656 -5.457031 23.328125 -4.53125 C 21.691406 -3.601562 19.804688 -3.140625 17.671875 -3.140625 C 15.253906 -3.140625 13.269531 -3.625 11.71875 -4.59375 C 10.175781 -5.570312 8.960938 -6.796875 8.078125 -8.265625 C 7.203125 -9.734375 6.570312 -11.300781 6.1875 -12.96875 C 5.8125 -14.632812 5.578125 -16.175781 5.484375 -17.59375 C 5.390625 -19.019531 5.34375 -20.140625 5.34375 -20.953125 L 5.34375 -36.84375 L 11.828125 -36.84375 L 11.828125 -22.734375 C 11.828125 -21.921875 11.835938 -20.929688 11.859375 -19.765625 C 11.890625 -18.609375 12.035156 -17.398438 12.296875 -16.140625 C 12.554688 -14.878906 12.957031 -13.703125 13.5 -12.609375 C 14.050781 -11.515625 14.820312 -10.625 15.8125 -9.9375 C 16.8125 -9.25 18.097656 -8.90625 19.671875 -8.90625 C 21.234375 -8.90625 22.597656 -9.320312 23.765625 -10.15625 C 24.929688 -10.988281 25.914062 -12.164062 26.71875 -13.6875 C 27.53125 -15.207031 28.148438 -16.988281 28.578125 -19.03125 C 29.003906 -21.070312 29.289062 -23.304688 29.4375 -25.734375 L 29.4375 -36.84375 L 35.921875 -36.84375 L 35.921875 -9.828125 C 35.921875 -7.984375 35.820312 -6.15625 35.625 -4.34375 C 35.4375 -2.539062 35.09375 -0.8125 34.59375 0.84375 C 34.09375 2.507812 33.414062 4.03125 32.5625 5.40625 C 31.707031 6.789062 30.640625 7.992188 29.359375 9.015625 C 28.078125 10.035156 26.554688 10.828125 24.796875 11.390625 C 23.035156 11.960938 20.96875 12.25 18.59375 12.25 Z M 18.59375 12.25 "/></g></g></g><g fill="#fcffe9" fill-opacity="1"><g transform="translate(329.757086, 559.039725)"><g><path d="M 21.375 0.921875 C 17.863281 0.921875 14.765625 0.160156 12.078125 -1.359375 C 9.390625 -2.878906 7.285156 -5.085938 5.765625 -7.984375 C 4.242188 -10.878906 3.484375 -14.414062 3.484375 -18.59375 C 3.484375 -22.875 4.28125 -26.425781 5.875 -29.25 C 7.46875 -32.082031 9.59375 -34.207031 12.25 -35.625 C 14.914062 -37.050781 17.910156 -37.765625 21.234375 -37.765625 C 24.609375 -37.765625 27.632812 -37.015625 30.3125 -35.515625 C 33 -34.023438 35.125 -31.84375 36.6875 -28.96875 C 38.257812 -26.09375 39.046875 -22.539062 39.046875 -18.3125 C 39.046875 -14.039062 38.273438 -10.476562 36.734375 -7.625 C 35.191406 -4.769531 33.078125 -2.628906 30.390625 -1.203125 C 27.710938 0.210938 24.707031 0.921875 21.375 0.921875 Z M 21.59375 -4.421875 C 22.875 -4.421875 24.15625 -4.644531 25.4375 -5.09375 C 26.71875 -5.539062 27.894531 -6.285156 28.96875 -7.328125 C 30.039062 -8.378906 30.90625 -9.785156 31.5625 -11.546875 C 32.226562 -13.304688 32.5625 -15.488281 32.5625 -18.09375 C 32.5625 -20.757812 32.21875 -22.992188 31.53125 -24.796875 C 30.84375 -26.609375 29.941406 -28.054688 28.828125 -29.140625 C 27.710938 -30.234375 26.460938 -31.03125 25.078125 -31.53125 C 23.703125 -32.03125 22.347656 -32.28125 21.015625 -32.28125 C 19.785156 -32.28125 18.53125 -32.050781 17.25 -31.59375 C 15.96875 -31.144531 14.78125 -30.410156 13.6875 -29.390625 C 12.59375 -28.367188 11.710938 -26.988281 11.046875 -25.25 C 10.378906 -23.519531 10.046875 -21.351562 10.046875 -18.75 C 10.046875 -16.082031 10.378906 -13.832031 11.046875 -12 C 11.710938 -10.175781 12.601562 -8.707031 13.71875 -7.59375 C 14.832031 -6.476562 16.078125 -5.671875 17.453125 -5.171875 C 18.835938 -4.671875 20.21875 -4.421875 21.59375 -4.421875 Z M 21.59375 -4.421875 "/></g></g></g><g fill="#fcffe9" fill-opacity="1"><g transform="translate(372.374428, 559.039725)"><g><path d="M 17.3125 0.921875 C 15.457031 0.921875 13.84375 0.632812 12.46875 0.0625 C 11.09375 -0.5 9.914062 -1.289062 8.9375 -2.3125 C 7.96875 -3.332031 7.1875 -4.566406 6.59375 -6.015625 C 6 -7.472656 5.554688 -9.078125 5.265625 -10.828125 C 4.984375 -12.585938 4.84375 -14.488281 4.84375 -16.53125 L 4.84375 -36.84375 L 11.40625 -36.84375 L 11.40625 -18.03125 C 11.40625 -16.5625 11.472656 -15.050781 11.609375 -13.5 C 11.753906 -11.957031 12.078125 -10.53125 12.578125 -9.21875 C 13.078125 -7.914062 13.847656 -6.859375 14.890625 -6.046875 C 15.941406 -5.242188 17.367188 -4.84375 19.171875 -4.84375 C 20.640625 -4.84375 21.96875 -5.210938 23.15625 -5.953125 C 24.34375 -6.691406 25.375 -7.738281 26.25 -9.09375 C 27.132812 -10.445312 27.847656 -12.0625 28.390625 -13.9375 C 28.941406 -15.8125 29.335938 -17.890625 29.578125 -20.171875 L 29.578125 -36.84375 L 36.0625 -36.84375 L 36.0625 0 L 30.28125 0 L 30.859375 -12.1875 L 29.78125 -12.1875 C 29.21875 -9.144531 28.363281 -6.648438 27.21875 -4.703125 C 26.082031 -2.753906 24.679688 -1.328125 23.015625 -0.421875 C 21.359375 0.472656 19.457031 0.921875 17.3125 0.921875 Z M 17.3125 0.921875 "/></g></g></g><g fill="#fcffe9" fill-opacity="1"><g transform="translate(413.851521, 559.039725)"><g><path d="M 5.421875 0 L 5.421875 -36.84375 L 11.328125 -36.84375 L 10.6875 -23.65625 L 11.828125 -23.65625 C 12.253906 -26.550781 12.914062 -29.046875 13.8125 -31.140625 C 14.71875 -33.234375 15.929688 -34.859375 17.453125 -36.015625 C 18.972656 -37.179688 20.804688 -37.765625 22.953125 -37.765625 C 23.472656 -37.765625 24.039062 -37.71875 24.65625 -37.625 C 25.269531 -37.53125 25.984375 -37.363281 26.796875 -37.125 L 26.4375 -30.28125 C 25.726562 -30.570312 25.015625 -30.785156 24.296875 -30.921875 C 23.585938 -31.066406 22.898438 -31.140625 22.234375 -31.140625 C 20.378906 -31.140625 18.773438 -30.519531 17.421875 -29.28125 C 16.066406 -28.050781 14.945312 -26.398438 14.0625 -24.328125 C 13.1875 -22.265625 12.46875 -19.90625 11.90625 -17.25 L 11.90625 0 Z M 5.421875 0 "/></g></g></g><g fill="#fcffe9" fill-opacity="1"><g transform="translate(441.93052, 559.039725)"><g/></g><g transform="translate(459.747106, 559.039725)"><g><path d="M 5.5 0 L 5.5 -36.84375 L 11.984375 -36.84375 L 11.984375 0 Z M 8.703125 -43.109375 C 7.222656 -43.109375 6.101562 -43.414062 5.34375 -44.03125 C 4.582031 -44.65625 4.203125 -45.5625 4.203125 -46.75 C 4.203125 -47.988281 4.582031 -48.914062 5.34375 -49.53125 C 6.101562 -50.144531 7.222656 -50.453125 8.703125 -50.453125 C 10.222656 -50.453125 11.359375 -50.144531 12.109375 -49.53125 C 12.867188 -48.914062 13.25 -47.988281 13.25 -46.75 C 13.25 -45.5625 12.867188 -44.65625 12.109375 -44.03125 C 11.359375 -43.414062 10.222656 -43.109375 8.703125 -43.109375 Z M 8.703125 -43.109375 "/></g></g></g><g fill="#fcffe9" fill-opacity="1"><g transform="translate(477.207379, 559.039725)"><g><path d="M 5.421875 0 L 5.421875 -36.84375 L 11.328125 -36.84375 L 10.625 -24.734375 L 11.765625 -24.734375 C 12.421875 -27.816406 13.332031 -30.320312 14.5 -32.25 C 15.664062 -34.175781 17.113281 -35.578125 18.84375 -36.453125 C 20.582031 -37.328125 22.546875 -37.765625 24.734375 -37.765625 C 26.816406 -37.765625 28.582031 -37.410156 30.03125 -36.703125 C 31.488281 -35.992188 32.675781 -35.039062 33.59375 -33.84375 C 34.519531 -32.65625 35.242188 -31.300781 35.765625 -29.78125 C 36.296875 -28.269531 36.664062 -26.679688 36.875 -25.015625 C 37.09375 -23.347656 37.203125 -21.707031 37.203125 -20.09375 L 37.203125 0 L 30.640625 0 L 30.640625 -19.171875 C 30.640625 -20.210938 30.578125 -21.445312 30.453125 -22.875 C 30.335938 -24.300781 30.039062 -25.703125 29.5625 -27.078125 C 29.09375 -28.453125 28.335938 -29.613281 27.296875 -30.5625 C 26.253906 -31.519531 24.804688 -32 22.953125 -32 C 20.671875 -32 18.734375 -31.273438 17.140625 -29.828125 C 15.546875 -28.378906 14.304688 -26.453125 13.421875 -24.046875 C 12.546875 -21.648438 12.039062 -19.023438 11.90625 -16.171875 L 11.90625 0 Z M 5.421875 0 "/></g></g></g><g fill="#fcffe9" fill-opacity="1"><g transform="translate(519.254597, 559.039725)"><g><path d="M 5.421875 0 L 5.421875 -36.84375 L 11.328125 -36.84375 L 10.625 -24.734375 L 11.765625 -24.734375 C 12.421875 -27.816406 13.332031 -30.320312 14.5 -32.25 C 15.664062 -34.175781 17.113281 -35.578125 18.84375 -36.453125 C 20.582031 -37.328125 22.546875 -37.765625 24.734375 -37.765625 C 26.816406 -37.765625 28.582031 -37.410156 30.03125 -36.703125 C 31.488281 -35.992188 32.675781 -35.039062 33.59375 -33.84375 C 34.519531 -32.65625 35.242188 -31.300781 35.765625 -29.78125 C 36.296875 -28.269531 36.664062 -26.679688 36.875 -25.015625 C 37.09375 -23.347656 37.203125 -21.707031 37.203125 -20.09375 L 37.203125 0 L 30.640625 0 L 30.640625 -19.171875 C 30.640625 -20.210938 30.578125 -21.445312 30.453125 -22.875 C 30.335938 -24.300781 30.039062 -25.703125 29.5625 -27.078125 C 29.09375 -28.453125 28.335938 -29.613281 27.296875 -30.5625 C 26.253906 -31.519531 24.804688 -32 22.953125 -32 C 20.671875 -32 18.734375 -31.273438 17.140625 -29.828125 C 15.546875 -28.378906 14.304688 -26.453125 13.421875 -24.046875 C 12.546875 -21.648438 12.039062 -19.023438 11.90625 -16.171875 L 11.90625 0 Z M 5.421875 0 "/></g></g></g><g fill="#fcffe9" fill-opacity="1"><g transform="translate(561.301814, 559.039725)"><g><path d="M 21.375 0.921875 C 18.4375 0.921875 15.859375 0.484375 13.640625 -0.390625 C 11.429688 -1.265625 9.578125 -2.535156 8.078125 -4.203125 C 6.585938 -5.867188 5.445312 -7.851562 4.65625 -10.15625 C 3.875 -12.457031 3.484375 -15.007812 3.484375 -17.8125 C 3.484375 -20.707031 3.863281 -23.367188 4.625 -25.796875 C 5.382812 -28.222656 6.5 -30.328125 7.96875 -32.109375 C 9.445312 -33.890625 11.253906 -35.273438 13.390625 -36.265625 C 15.535156 -37.265625 17.984375 -37.765625 20.734375 -37.765625 C 23.203125 -37.765625 25.421875 -37.347656 27.390625 -36.515625 C 29.367188 -35.691406 31.054688 -34.445312 32.453125 -32.78125 C 33.859375 -31.113281 34.914062 -29.019531 35.625 -26.5 C 36.34375 -23.988281 36.628906 -21.023438 36.484375 -17.609375 L 7.625 -17.390625 L 7.625 -21.8125 L 32.421875 -22.015625 L 30.28125 -19.03125 C 30.519531 -21.976562 30.25 -24.425781 29.46875 -26.375 C 28.6875 -28.320312 27.546875 -29.789062 26.046875 -30.78125 C 24.546875 -31.78125 22.773438 -32.28125 20.734375 -32.28125 C 18.546875 -32.28125 16.632812 -31.707031 15 -30.5625 C 13.363281 -29.425781 12.09375 -27.789062 11.1875 -25.65625 C 10.28125 -23.519531 9.828125 -20.929688 9.828125 -17.890625 C 9.828125 -13.515625 10.8125 -10.175781 12.78125 -7.875 C 14.757812 -5.570312 17.648438 -4.421875 21.453125 -4.421875 C 22.972656 -4.421875 24.289062 -4.609375 25.40625 -4.984375 C 26.519531 -5.367188 27.46875 -5.878906 28.25 -6.515625 C 29.039062 -7.160156 29.679688 -7.921875 30.171875 -8.796875 C 30.671875 -9.679688 31.039062 -10.617188 31.28125 -11.609375 L 37.0625 -10.40625 C 36.632812 -8.644531 35.988281 -7.0625 35.125 -5.65625 C 34.269531 -4.257812 33.191406 -3.070312 31.890625 -2.09375 C 30.585938 -1.125 29.054688 -0.378906 27.296875 0.140625 C 25.535156 0.660156 23.5625 0.921875 21.375 0.921875 Z M 21.375 0.921875 "/></g></g></g><g fill="#fcffe9" fill-opacity="1"><g transform="translate(601.282287, 559.039725)"><g><path d="M 5.421875 0 L 5.421875 -36.84375 L 11.328125 -36.84375 L 10.6875 -23.65625 L 11.828125 -23.65625 C 12.253906 -26.550781 12.914062 -29.046875 13.8125 -31.140625 C 14.71875 -33.234375 15.929688 -34.859375 17.453125 -36.015625 C 18.972656 -37.179688 20.804688 -37.765625 22.953125 -37.765625 C 23.472656 -37.765625 24.039062 -37.71875 24.65625 -37.625 C 25.269531 -37.53125 25.984375 -37.363281 26.796875 -37.125 L 26.4375 -30.28125 C 25.726562 -30.570312 25.015625 -30.785156 24.296875 -30.921875 C 23.585938 -31.066406 22.898438 -31.140625 22.234375 -31.140625 C 20.378906 -31.140625 18.773438 -30.519531 17.421875 -29.28125 C 16.066406 -28.050781 14.945312 -26.398438 14.0625 -24.328125 C 13.1875 -22.265625 12.46875 -19.90625 11.90625 -17.25 L 11.90625 0 Z M 5.421875 0 "/></g></g></g><g fill="#fcffe9" fill-opacity="1"><g transform="translate(629.361286, 559.039725)"><g/></g><g transform="translate(647.177871, 559.039725)"><g><path d="M 19.234375 12.328125 C 15.335938 12.328125 12.144531 12.03125 9.65625 11.4375 C 7.164062 10.84375 5.335938 9.9375 4.171875 8.71875 C 3.003906 7.507812 2.421875 6.03125 2.421875 4.28125 C 2.421875 2.09375 3.265625 0.300781 4.953125 -1.09375 C 6.640625 -2.5 9.238281 -3.441406 12.75 -3.921875 L 12.75 -5.203125 C 10.1875 -5.203125 8.273438 -5.507812 7.015625 -6.125 C 5.753906 -6.75 5.125 -7.675781 5.125 -8.90625 C 5.125 -10.1875 5.753906 -11.265625 7.015625 -12.140625 C 8.273438 -13.023438 10.351562 -13.847656 13.25 -14.609375 L 13.25 -15.890625 C 10.351562 -15.984375 8.144531 -16.875 6.625 -18.5625 C 5.101562 -20.25 4.34375 -22.421875 4.34375 -25.078125 C 4.34375 -27.554688 4.992188 -29.6875 6.296875 -31.46875 C 7.609375 -33.25 9.5 -34.625 11.96875 -35.59375 C 14.4375 -36.570312 17.40625 -37.0625 20.875 -37.0625 L 38.34375 -37.0625 L 38.34375 -31.578125 L 26.859375 -33.28125 L 26.859375 -32 C 29.671875 -31.425781 31.800781 -30.453125 33.25 -29.078125 C 34.695312 -27.703125 35.421875 -25.894531 35.421875 -23.65625 C 35.421875 -21.613281 34.828125 -19.832031 33.640625 -18.3125 C 32.453125 -16.789062 30.703125 -15.613281 28.390625 -14.78125 C 26.085938 -13.957031 23.273438 -13.546875 19.953125 -13.546875 C 19.242188 -13.546875 18.53125 -13.566406 17.8125 -13.609375 C 17.101562 -13.660156 16.15625 -13.78125 14.96875 -13.96875 C 13.632812 -13.207031 12.585938 -12.492188 11.828125 -11.828125 C 11.066406 -11.160156 10.6875 -10.566406 10.6875 -10.046875 C 10.6875 -9.523438 11.03125 -9.117188 11.71875 -8.828125 C 12.40625 -8.546875 13.257812 -8.359375 14.28125 -8.265625 C 15.3125 -8.171875 16.273438 -8.125 17.171875 -8.125 L 25.734375 -8.125 C 26.679688 -8.125 27.878906 -8.023438 29.328125 -7.828125 C 30.773438 -7.640625 32.222656 -7.25 33.671875 -6.65625 C 35.117188 -6.0625 36.34375 -5.113281 37.34375 -3.8125 C 38.34375 -2.507812 38.84375 -0.738281 38.84375 1.5 C 38.84375 4.0625 38.082031 6.140625 36.5625 7.734375 C 35.039062 9.328125 32.828125 10.488281 29.921875 11.21875 C 27.023438 11.957031 23.460938 12.328125 19.234375 12.328125 Z M 19.390625 6.90625 C 22.566406 6.90625 25.148438 6.710938 27.140625 6.328125 C 29.140625 5.953125 30.59375 5.335938 31.5 4.484375 C 32.40625 3.628906 32.859375 2.539062 32.859375 1.21875 C 32.859375 0.03125 32.546875 -0.90625 31.921875 -1.59375 C 31.304688 -2.289062 30.523438 -2.78125 29.578125 -3.0625 C 28.628906 -3.34375 27.675781 -3.507812 26.71875 -3.5625 C 25.769531 -3.613281 24.941406 -3.640625 24.234375 -3.640625 L 15.890625 -3.640625 C 13.140625 -3.015625 11.25 -2.179688 10.21875 -1.140625 C 9.195312 -0.0976562 8.6875 1.039062 8.6875 2.28125 C 8.6875 3.613281 9.148438 4.609375 10.078125 5.265625 C 11.003906 5.929688 12.285156 6.367188 13.921875 6.578125 C 15.566406 6.796875 17.390625 6.90625 19.390625 6.90625 Z M 20.234375 -17.75 C 23.179688 -17.75 25.414062 -18.363281 26.9375 -19.59375 C 28.457031 -20.832031 29.21875 -22.5 29.21875 -24.59375 C 29.21875 -26.820312 28.429688 -28.660156 26.859375 -30.109375 C 25.296875 -31.554688 23.019531 -32.28125 20.03125 -32.28125 C 17.082031 -32.28125 14.800781 -31.59375 13.1875 -30.21875 C 11.570312 -28.84375 10.765625 -27.0625 10.765625 -24.875 C 10.765625 -23.445312 11.128906 -22.195312 11.859375 -21.125 C 12.597656 -20.0625 13.664062 -19.234375 15.0625 -18.640625 C 16.46875 -18.046875 18.191406 -17.75 20.234375 -17.75 Z M 20.234375 -17.75 "/></g></g></g><g fill="#fcffe9" fill-opacity="1"><g transform="translate(688.441153, 559.039725)"><g><path d="M 21.375 0.921875 C 18.4375 0.921875 15.859375 0.484375 13.640625 -0.390625 C 11.429688 -1.265625 9.578125 -2.535156 8.078125 -4.203125 C 6.585938 -5.867188 5.445312 -7.851562 4.65625 -10.15625 C 3.875 -12.457031 3.484375 -15.007812 3.484375 -17.8125 C 3.484375 -20.707031 3.863281 -23.367188 4.625 -25.796875 C 5.382812 -28.222656 6.5 -30.328125 7.96875 -32.109375 C 9.445312 -33.890625 11.253906 -35.273438 13.390625 -36.265625 C 15.535156 -37.265625 17.984375 -37.765625 20.734375 -37.765625 C 23.203125 -37.765625 25.421875 -37.347656 27.390625 -36.515625 C 29.367188 -35.691406 31.054688 -34.445312 32.453125 -32.78125 C 33.859375 -31.113281 34.914062 -29.019531 35.625 -26.5 C 36.34375 -23.988281 36.628906 -21.023438 36.484375 -17.609375 L 7.625 -17.390625 L 7.625 -21.8125 L 32.421875 -22.015625 L 30.28125 -19.03125 C 30.519531 -21.976562 30.25 -24.425781 29.46875 -26.375 C 28.6875 -28.320312 27.546875 -29.789062 26.046875 -30.78125 C 24.546875 -31.78125 22.773438 -32.28125 20.734375 -32.28125 C 18.546875 -32.28125 16.632812 -31.707031 15 -30.5625 C 13.363281 -29.425781 12.09375 -27.789062 11.1875 -25.65625 C 10.28125 -23.519531 9.828125 -20.929688 9.828125 -17.890625 C 9.828125 -13.515625 10.8125 -10.175781 12.78125 -7.875 C 14.757812 -5.570312 17.648438 -4.421875 21.453125 -4.421875 C 22.972656 -4.421875 24.289062 -4.609375 25.40625 -4.984375 C 26.519531 -5.367188 27.46875 -5.878906 28.25 -6.515625 C 29.039062 -7.160156 29.679688 -7.921875 30.171875 -8.796875 C 30.671875 -9.679688 31.039062 -10.617188 31.28125 -11.609375 L 37.0625 -10.40625 C 36.632812 -8.644531 35.988281 -7.0625 35.125 -5.65625 C 34.269531 -4.257812 33.191406 -3.070312 31.890625 -2.09375 C 30.585938 -1.125 29.054688 -0.378906 27.296875 0.140625 C 25.535156 0.660156 23.5625 0.921875 21.375 0.921875 Z M 21.375 0.921875 "/></g></g></g><g fill="#fcffe9" fill-opacity="1"><g transform="translate(728.421626, 559.039725)"><g><path d="M 5.421875 0 L 5.421875 -36.84375 L 11.328125 -36.84375 L 10.625 -24.734375 L 11.765625 -24.734375 C 12.421875 -27.816406 13.332031 -30.320312 14.5 -32.25 C 15.664062 -34.175781 17.113281 -35.578125 18.84375 -36.453125 C 20.582031 -37.328125 22.546875 -37.765625 24.734375 -37.765625 C 26.816406 -37.765625 28.582031 -37.410156 30.03125 -36.703125 C 31.488281 -35.992188 32.675781 -35.039062 33.59375 -33.84375 C 34.519531 -32.65625 35.242188 -31.300781 35.765625 -29.78125 C 36.296875 -28.269531 36.664062 -26.679688 36.875 -25.015625 C 37.09375 -23.347656 37.203125 -21.707031 37.203125 -20.09375 L 37.203125 0 L 30.640625 0 L 30.640625 -19.171875 C 30.640625 -20.210938 30.578125 -21.445312 30.453125 -22.875 C 30.335938 -24.300781 30.039062 -25.703125 29.5625 -27.078125 C 29.09375 -28.453125 28.335938 -29.613281 27.296875 -30.5625 C 26.253906 -31.519531 24.804688 -32 22.953125 -32 C 20.671875 -32 18.734375 -31.273438 17.140625 -29.828125 C 15.546875 -28.378906 14.304688 -26.453125 13.421875 -24.046875 C 12.546875 -21.648438 12.039062 -19.023438 11.90625 -16.171875 L 11.90625 0 Z M 5.421875 0 "/></g></g></g><g fill="#fcffe9" fill-opacity="1"><g transform="translate(770.468844, 559.039725)"><g><path d="M 5.5 0 L 5.5 -36.84375 L 11.984375 -36.84375 L 11.984375 0 Z M 8.703125 -43.109375 C 7.222656 -43.109375 6.101562 -43.414062 5.34375 -44.03125 C 4.582031 -44.65625 4.203125 -45.5625 4.203125 -46.75 C 4.203125 -47.988281 4.582031 -48.914062 5.34375 -49.53125 C 6.101562 -50.144531 7.222656 -50.453125 8.703125 -50.453125 C 10.222656 -50.453125 11.359375 -50.144531 12.109375 -49.53125 C 12.867188 -48.914062 13.25 -47.988281 13.25 -46.75 C 13.25 -45.5625 12.867188 -44.65625 12.109375 -44.03125 C 11.359375 -43.414062 10.222656 -43.109375 8.703125 -43.109375 Z M 8.703125 -43.109375 "/></g></g></g><g fill="#fcffe9" fill-opacity="1"><g transform="translate(787.929117, 559.039725)"><g><path d="M 17.3125 0.921875 C 15.457031 0.921875 13.84375 0.632812 12.46875 0.0625 C 11.09375 -0.5 9.914062 -1.289062 8.9375 -2.3125 C 7.96875 -3.332031 7.1875 -4.566406 6.59375 -6.015625 C 6 -7.472656 5.554688 -9.078125 5.265625 -10.828125 C 4.984375 -12.585938 4.84375 -14.488281 4.84375 -16.53125 L 4.84375 -36.84375 L 11.40625 -36.84375 L 11.40625 -18.03125 C 11.40625 -16.5625 11.472656 -15.050781 11.609375 -13.5 C 11.753906 -11.957031 12.078125 -10.53125 12.578125 -9.21875 C 13.078125 -7.914062 13.847656 -6.859375 14.890625 -6.046875 C 15.941406 -5.242188 17.367188 -4.84375 19.171875 -4.84375 C 20.640625 -4.84375 21.96875 -5.210938 23.15625 -5.953125 C 24.34375 -6.691406 25.375 -7.738281 26.25 -9.09375 C 27.132812 -10.445312 27.847656 -12.0625 28.390625 -13.9375 C 28.941406 -15.8125 29.335938 -17.890625 29.578125 -20.171875 L 29.578125 -36.84375 L 36.0625 -36.84375 L 36.0625 0 L 30.28125 0 L 30.859375 -12.1875 L 29.78125 -12.1875 C 29.21875 -9.144531 28.363281 -6.648438 27.21875 -4.703125 C 26.082031 -2.753906 24.679688 -1.328125 23.015625 -0.421875 C 21.359375 0.472656 19.457031 0.921875 17.3125 0.921875 Z M 17.3125 0.921875 "/></g></g></g><g fill="#fcffe9" fill-opacity="1"><g transform="translate(829.406211, 559.039725)"><g><path d="M 19.171875 0.921875 C 16.609375 0.921875 14.335938 0.644531 12.359375 0.09375 C 10.390625 -0.445312 8.726562 -1.226562 7.375 -2.25 C 6.019531 -3.269531 4.984375 -4.503906 4.265625 -5.953125 C 3.554688 -7.398438 3.203125 -9.023438 3.203125 -10.828125 L 8.6875 -12.1875 C 8.644531 -10.519531 9.050781 -9.101562 9.90625 -7.9375 C 10.757812 -6.78125 12.003906 -5.890625 13.640625 -5.265625 C 15.285156 -4.648438 17.25 -4.34375 19.53125 -4.34375 C 22.375 -4.34375 24.566406 -4.816406 26.109375 -5.765625 C 27.660156 -6.722656 28.4375 -8.03125 28.4375 -9.6875 C 28.4375 -11.019531 28.007812 -12.050781 27.15625 -12.78125 C 26.300781 -13.519531 25.113281 -14.101562 23.59375 -14.53125 C 22.070312 -14.957031 20.3125 -15.390625 18.3125 -15.828125 C 16.550781 -16.203125 14.816406 -16.625 13.109375 -17.09375 C 11.398438 -17.570312 9.84375 -18.203125 8.4375 -18.984375 C 7.039062 -19.773438 5.914062 -20.796875 5.0625 -22.046875 C 4.207031 -23.304688 3.78125 -24.910156 3.78125 -26.859375 C 3.78125 -29.097656 4.375 -31.023438 5.5625 -32.640625 C 6.75 -34.253906 8.429688 -35.507812 10.609375 -36.40625 C 12.796875 -37.3125 15.410156 -37.765625 18.453125 -37.765625 C 21.453125 -37.765625 24.03125 -37.300781 26.1875 -36.375 C 28.351562 -35.445312 30.050781 -34.140625 31.28125 -32.453125 C 32.519531 -30.773438 33.210938 -28.769531 33.359375 -26.4375 L 27.71875 -25.078125 C 27.675781 -26.703125 27.257812 -28.070312 26.46875 -29.1875 C 25.6875 -30.300781 24.582031 -31.128906 23.15625 -31.671875 C 21.726562 -32.222656 20.066406 -32.5 18.171875 -32.5 C 15.648438 -32.5 13.664062 -32.019531 12.21875 -31.0625 C 10.769531 -30.113281 10.046875 -28.8125 10.046875 -27.15625 C 10.046875 -25.875 10.484375 -24.851562 11.359375 -24.09375 C 12.242188 -23.332031 13.429688 -22.75 14.921875 -22.34375 C 16.421875 -21.9375 18.125 -21.519531 20.03125 -21.09375 C 21.882812 -20.71875 23.675781 -20.289062 25.40625 -19.8125 C 27.132812 -19.332031 28.6875 -18.710938 30.0625 -17.953125 C 31.445312 -17.191406 32.539062 -16.179688 33.34375 -14.921875 C 34.15625 -13.671875 34.5625 -12.046875 34.5625 -10.046875 C 34.5625 -7.671875 33.921875 -5.660156 32.640625 -4.015625 C 31.359375 -2.378906 29.578125 -1.144531 27.296875 -0.3125 C 25.015625 0.507812 22.304688 0.921875 19.171875 0.921875 Z M 19.171875 0.921875 "/></g></g></g></svg>