<svg xmlns="http://www.w3.org/2000/svg" xmlns:xlink="http://www.w3.org/1999/xlink" id="visual" version="1.1" viewBox="0 0 960 222" ><rect width="100%" height="100%" fill="#43565f" /><path d="M0 144L22.8 155.7C45.7 167.3 91.3 190.7 137 196.8C182.7 203 228.3 192 274 193.2C319.7 194.3 365.3 207.7 411.2 204.5C457 201.3 503 181.7 548.8 167.8C594.7 154 640.3 146 686 149.5C731.7 153 777.3 168 823 182C868.7 196 914.3 209 937.2 215.5L960 222L960 0L937.2 0C914.3 0 868.7 0 823 0C777.3 0 731.7 0 686 0C640.3 0 594.7 0 548.8 0C503 0 457 0 411.2 0C365.3 0 319.7 0 274 0C228.3 0 182.7 0 137 0C91.3 0 45.7 0 22.8 0L0 0Z" fill="#000000"/><path d="M0 172L22.8 165C45.7 158 91.3 144 137 134.2C182.7 124.3 228.3 118.7 274 116C319.7 113.3 365.3 113.7 411.2 122.2C457 130.7 503 147.3 548.8 151.5C594.7 155.7 640.3 147.3 686 149.5C731.7 151.7 777.3 164.3 823 165.7C868.7 167 914.3 157 937.2 152L960 147L960 0L937.2 0C914.3 0 868.7 0 823 0C777.3 0 731.7 0 686 0C640.3 0 594.7 0 548.8 0C503 0 457 0 411.2 0C365.3 0 319.7 0 274 0C228.3 0 182.7 0 137 0C91.3 0 45.7 0 22.8 0L0 0Z" fill="#081c23"/><path d="M0 80L22.8 87.7C45.7 95.3 91.3 110.7 137 112.8C182.7 115 228.3 104 274 96.7C319.7 89.3 365.3 85.7 411.2 86C457 86.3 503 90.7 548.8 96.2C594.7 101.7 640.3 108.3 686 109.3C731.7 110.3 777.3 105.7 823 110.3C868.7 115 914.3 129 937.2 136L960 143L960 0L937.2 0C914.3 0 868.7 0 823 0C777.3 0 731.7 0 686 0C640.3 0 594.7 0 548.8 0C503 0 457 0 411.2 0C365.3 0 319.7 0 274 0C228.3 0 182.7 0 137 0C91.3 0 45.7 0 22.8 0L0 0Z" fill="#1b2e36"/><path d="M0 69L22.8 73.2C45.7 77.3 91.3 85.7 137 90.2C182.7 94.7 228.3 95.3 274 95.3C319.7 95.3 365.3 94.7 411.2 91.8C457 89 503 84 548.8 84.5C594.7 85 640.3 91 686 86.7C731.7 82.3 777.3 67.7 823 64.2C868.7 60.7 914.3 68.3 937.2 72.2L960 76L960 0L937.2 0C914.3 0 868.7 0 823 0C777.3 0 731.7 0 686 0C640.3 0 594.7 0 548.8 0C503 0 457 0 411.2 0C365.3 0 319.7 0 274 0C228.3 0 182.7 0 137 0C91.3 0 45.7 0 22.8 0L0 0Z" fill="#2f414a"/><path d="M0 38L22.8 40.5C45.7 43 91.3 48 137 50.2C182.7 52.3 228.3 51.7 274 53C319.7 54.3 365.3 57.7 411.2 55.7C457 53.7 503 46.3 548.8 42.3C594.7 38.3 640.3 37.7 686 41.7C731.7 45.7 777.3 54.3 823 57.7C868.7 61 914.3 59 937.2 58L960 57L960 0L937.2 0C914.3 0 868.7 0 823 0C777.3 0 731.7 0 686 0C640.3 0 594.7 0 548.8 0C503 0 457 0 411.2 0C365.3 0 319.7 0 274 0C228.3 0 182.7 0 137 0C91.3 0 45.7 0 22.8 0L0 0Z" fill="#43565f"/></svg>